<svg width="204" height="20" viewBox="0 0 204 20" fill="none" xmlns="http://www.w3.org/2000/svg">
<path d="M76.367 2.90407C76.367 3.47073 76.2036 3.95645 75.7949 4.28026C75.3863 4.68502 74.8959 4.84692 74.3238 4.84692C73.9151 4.84692 73.5882 4.76597 73.343 4.60407C73.0161 4.44216 72.7709 4.19931 72.6075 3.8755C72.444 3.55169 72.3623 3.22788 72.3623 2.90407C72.3623 2.3374 72.5257 1.85169 72.9344 1.52788C73.343 1.12312 73.8334 0.961212 74.3238 0.961212C74.8959 0.961212 75.3863 1.12312 75.7132 1.52788C76.1218 1.85169 76.367 2.3374 76.367 2.90407Z" fill="white"/>
<path d="M90.6673 15.5327C90.6673 16.747 90.1769 17.7994 89.2779 18.528C88.3789 19.3375 86.9895 19.6613 85.1914 19.6613C84.2107 19.6613 83.3116 19.5803 82.4943 19.4184C81.677 19.2565 80.8597 19.0137 79.9607 18.6089V15.2089C80.778 15.6946 81.4318 16.0184 82.0857 16.2613C82.6578 16.5041 83.3116 16.5851 84.0472 16.5851C85.2731 16.5851 85.8453 16.2613 85.8453 15.6137C85.8453 15.3708 85.7635 15.2089 85.6001 15.047C85.4366 14.8851 85.1097 14.6422 84.701 14.4803C84.2924 14.2375 83.7203 13.9946 82.9847 13.6708C82.0857 13.266 81.3501 12.7803 80.6963 12.1327C80.0424 11.4851 79.7972 10.6756 79.7972 9.70414C79.7972 9.05653 80.0424 8.40891 80.4511 7.76129C80.8597 7.11367 81.5136 6.62795 82.3309 6.22319C83.1482 5.81843 84.2107 5.65652 85.3549 5.65652C85.6001 5.65652 86.0087 5.65652 86.4174 5.73748C86.826 5.81843 87.3981 5.89938 88.052 6.06129C88.7058 6.22319 89.3596 6.46605 89.9317 6.78986V10.1089C89.6865 9.947 89.4414 9.7851 89.1962 9.70414C89.0327 9.62319 88.7875 9.46129 88.4606 9.29938C88.1337 9.13748 87.725 9.05653 87.3164 8.89462C86.9077 8.81367 86.4174 8.73272 86.0087 8.73272C85.4366 8.73272 85.1097 8.81367 84.8645 9.05652C84.6193 9.29938 84.5376 9.46129 84.5376 9.70414C84.5376 9.947 84.6193 10.1089 84.8645 10.3518C85.1097 10.5946 85.5183 10.7565 86.2539 11.0803C87.3164 11.4851 88.1337 11.8899 88.7875 12.2946C89.4414 12.6994 89.85 13.1851 90.1769 13.6708C90.5038 14.2375 90.6673 14.8041 90.6673 15.5327Z" fill="white"/>
<path d="M103.99 18.6084C103.499 18.8513 102.846 19.0941 101.947 19.256C101.048 19.4989 100.23 19.5798 99.4129 19.5798C95.9803 19.5798 94.2639 17.8798 94.2639 14.5608V9.21793H92.0572V8.40841L98.5139 1.93222H99.086V5.97984H103.663V9.29888H99.086V13.5894C99.086 14.0751 99.086 14.4798 99.1677 14.8036C99.2495 15.1275 99.4129 15.3703 99.6581 15.6132C99.985 15.856 100.394 15.937 100.966 15.937C101.701 15.937 102.764 15.6132 103.99 14.9655V18.6084Z" fill="white"/>
<path d="M123.034 2.90407C123.034 3.47073 122.871 3.95645 122.462 4.28026C122.054 4.68502 121.563 4.84692 120.991 4.84692C120.583 4.84692 120.256 4.76597 120.01 4.60407C119.684 4.44216 119.438 4.19931 119.275 3.8755C119.111 3.55169 119.03 3.22788 119.03 2.90407C119.03 2.3374 119.193 1.85169 119.602 1.52788C120.01 1.12312 120.501 0.961212 120.991 0.961212C121.563 0.961212 122.054 1.12312 122.381 1.52788C122.789 1.85169 123.034 2.3374 123.034 2.90407Z" fill="white"/>
<path d="M172.152 18.6084C171.662 18.8513 171.008 19.0941 170.109 19.256C169.21 19.4989 168.393 19.5798 167.576 19.5798C164.143 19.5798 162.427 17.8798 162.427 14.5608V9.21793H160.22V8.40841L166.677 1.93222H167.249V5.97984H171.826V9.29888H167.249V13.5894C167.249 14.0751 167.249 14.4798 167.33 14.8036C167.412 15.1275 167.576 15.3703 167.821 15.6132C168.066 15.856 168.556 15.937 169.128 15.937C169.864 15.937 170.927 15.6132 172.152 14.9655V18.6084Z" fill="white"/>
<path d="M189.236 12.6993C189.236 14.0755 188.909 15.2088 188.337 16.2612C187.765 17.3136 186.866 18.1231 185.722 18.7707C184.578 19.4184 183.107 19.6612 181.472 19.6612C179.837 19.6612 178.366 19.3374 177.222 18.7707C176.078 18.2041 175.179 17.3136 174.607 16.2612C174.035 15.2088 173.708 13.9946 173.708 12.6993C173.708 11.6469 173.871 10.7565 174.198 9.94693C174.525 9.13741 175.015 8.40884 175.669 7.76122C176.323 7.1136 177.14 6.62788 178.121 6.30407C179.102 5.98026 180.246 5.81836 181.472 5.81836C182.78 5.81836 183.842 5.98026 184.905 6.30407C185.967 6.62788 186.703 7.1136 187.357 7.76122C188.01 8.40884 188.501 9.13741 188.828 9.94693C189.155 10.7565 189.236 11.6469 189.236 12.6993ZM184.251 12.6993C184.251 11.6469 184.006 10.8374 183.515 10.1898C183.025 9.54217 182.371 9.29931 181.472 9.29931C180.573 9.29931 179.919 9.62312 179.429 10.1898C178.938 10.7565 178.693 11.6469 178.693 12.6993C178.693 13.7517 178.938 14.5612 179.429 15.2088C179.919 15.8565 180.573 16.0993 181.472 16.0993C182.371 16.0993 183.025 15.7755 183.515 15.2088C184.006 14.5612 184.251 13.7517 184.251 12.6993Z" fill="white"/>
<path d="M75.3853 19.418C75.5488 19.418 75.9574 19.418 76.3661 19.0132C76.3661 19.0132 76.7747 18.6085 76.7747 18.0418V5.97992H73.3421C73.2604 5.97992 72.77 5.97992 72.4431 6.38468C72.4431 6.38468 72.0344 6.78944 72.0344 7.35611V19.418H75.3853Z" fill="white"/>
<path d="M157.034 19.418C157.115 19.418 157.606 19.418 157.933 19.0133C157.933 19.0133 158.341 18.6085 158.341 18.0418V5.97992H154.909C154.827 5.97992 154.336 5.97992 154.01 6.38468C154.01 6.38468 153.601 6.78944 153.601 7.35611V13.9133C153.192 14.5609 152.784 15.0466 152.375 15.4514C151.966 15.8561 151.394 16.018 150.74 16.018C149.923 16.018 149.351 15.7752 149.106 15.2085C148.861 14.6418 148.697 13.9942 148.697 13.2656V5.97992H143.875V13.9133C143.875 15.3704 144.202 16.7466 144.774 17.8799C145.346 19.0133 146.736 19.6609 148.779 19.6609C149.841 19.6609 150.74 19.499 151.476 19.0942C152.212 18.7704 152.947 18.2037 153.601 17.4752V19.418H157.034Z" fill="white"/>
<path d="M68.6835 18.0418V1.12277H65.2509C65.1691 1.12277 64.6788 1.12277 64.3518 1.52753C64.3518 1.52753 63.9432 1.9323 63.9432 2.49896V6.78944C63.5345 6.46563 63.0442 6.22277 62.4721 6.06087C61.9 5.89896 61.1644 5.73706 60.3471 5.73706C58.876 5.73706 57.7317 6.06087 56.751 6.70849C55.7702 7.3561 55.0347 8.24658 54.5443 9.29896C54.0539 10.3513 53.8904 11.4847 53.8904 12.699C53.8904 14.2371 54.2174 15.5323 54.7895 16.5847C55.3616 17.6371 56.1789 18.3656 57.1596 18.8513C58.1404 19.3371 59.0394 19.5799 60.1019 19.5799C61.0827 19.5799 61.9 19.418 62.4721 19.1752C63.0442 18.9323 63.5345 18.5275 64.1067 18.1228V19.418H67.5393C67.621 19.418 68.1114 19.418 68.4383 19.0132C68.2749 19.0132 68.6835 18.6894 68.6835 18.0418ZM63.8615 15.1275C63.5345 15.3704 63.2076 15.6132 62.799 15.7752C62.4721 15.9371 61.9817 16.018 61.4096 16.018C60.674 16.018 60.1019 15.7752 59.5298 15.2085C58.9577 14.6418 58.7125 13.8323 58.7125 12.618C58.7125 11.5656 58.9577 10.6752 59.4481 10.0275C59.9384 9.37991 60.5923 9.0561 61.3278 9.0561C61.7365 9.0561 62.1451 9.13706 62.4721 9.21801C62.799 9.37991 63.2076 9.54182 63.7797 9.86563V15.1275H63.8615Z" fill="white"/>
<path d="M202.229 5.98001C201.82 5.8181 201.33 5.73715 200.839 5.73715C199.777 5.73715 198.878 6.14191 198.142 6.87049C197.406 7.59906 196.834 8.40858 196.507 9.2181V5.98001H193.075C192.911 5.98001 192.503 6.06096 192.176 6.38477C192.176 6.38477 191.767 6.78953 191.767 7.3562V19.4181H195.2C195.282 19.4181 195.772 19.4181 196.099 19.0133C196.099 19.0133 196.507 18.6086 196.507 18.0419V13.5895C196.998 12.3752 197.406 11.5657 197.897 11.08C198.387 10.5943 198.959 10.4324 199.613 10.4324C200.349 10.4324 201.084 10.7562 201.82 11.4848L203.618 6.70858C203.128 6.38477 202.637 6.14191 202.229 5.98001Z" fill="white"/>
<path d="M119.929 5.97992C119.766 5.97992 119.357 5.97992 118.948 6.38468C118.948 6.38468 118.54 6.78944 118.54 7.35611V19.418H121.972C122.054 19.418 122.544 19.418 122.871 19.0132C122.871 19.0132 123.28 18.6085 123.28 18.0418V5.97992H119.929Z" fill="white"/>
<path d="M116.578 5.98001C116.169 5.8181 115.679 5.73715 115.188 5.73715C114.126 5.73715 113.227 6.14191 112.491 6.87049C111.756 7.59906 111.183 8.40858 110.856 9.2181V5.98001H107.424C107.342 5.98001 106.852 5.98001 106.525 6.38477C106.525 6.38477 106.116 6.78953 106.116 7.3562V19.4181H109.549C109.631 19.4181 110.121 19.4181 110.448 19.0133C110.448 19.0133 110.856 18.6086 110.856 18.0419V13.5895C111.347 12.3752 111.756 11.5657 112.246 11.08C112.736 10.5943 113.308 10.4324 113.962 10.4324C114.698 10.4324 115.433 10.7562 116.169 11.4848L117.967 6.70858C117.395 6.38477 116.986 6.14191 116.578 5.98001Z" fill="white"/>
<path d="M141.258 10.1894C141.013 9.37992 140.605 8.57039 140.114 7.92277C139.624 7.27515 138.888 6.70849 138.071 6.30372C137.254 5.89896 136.273 5.73706 135.21 5.73706C134.393 5.73706 133.658 5.81801 133.085 6.06087C132.432 6.30372 131.941 6.54658 131.614 6.78944V1.12277H128.182C128.1 1.12277 127.61 1.12277 127.283 1.52753C127.283 1.52753 126.874 1.9323 126.874 2.49896V19.418H130.307C130.388 19.418 130.879 19.418 131.206 19.0132C131.206 19.0132 131.614 18.6085 131.614 18.0418V18.2037C131.941 18.4466 132.186 18.6894 132.513 18.8513C132.84 19.0132 133.167 19.2561 133.739 19.418C134.23 19.5799 134.883 19.6609 135.619 19.6609C136.6 19.6609 137.581 19.418 138.561 18.9323C139.542 18.4466 140.278 17.718 140.931 16.6656C141.585 15.6132 141.831 14.318 141.831 12.7799C141.585 11.8894 141.504 10.999 141.258 10.1894ZM135.701 15.3704C135.129 15.8561 134.557 16.099 133.903 16.099C132.922 16.099 132.186 15.7752 131.451 15.1275V10.0275C132.35 9.46087 133.167 9.13706 133.903 9.13706C134.638 9.13706 135.21 9.46087 135.783 10.0275C136.273 10.5942 136.6 11.4847 136.6 12.699C136.518 13.9942 136.273 14.8847 135.701 15.3704Z" fill="white"/>
<path d="M0.847191 9.05699L5.42406 4.60461V7.11414H9.26535V9.29985H5.42406V15.2094C5.42406 16.5856 5.99616 17.3141 7.14038 17.3141C8.03941 17.3141 8.93843 16.9903 9.91919 16.4237V18.6903C9.02016 19.176 7.95768 19.4999 6.89519 19.4999C5.75097 19.4189 4.85195 19.0951 4.11638 18.5284C3.87119 18.3665 3.70773 18.1237 3.54427 17.8808C3.38081 17.6379 3.29908 17.3141 3.13562 16.9094C2.97216 16.5046 2.97216 15.776 2.97216 14.6427V9.2189H0.847191V9.05699Z" fill="white"/>
<path d="M17.5209 7.03262C19.4007 7.03262 20.9535 7.59929 22.1795 8.81358C23.4054 10.0279 24.0593 11.485 24.0593 13.3469C24.0593 15.1279 23.4054 16.585 22.1795 17.7183C20.9535 18.8517 19.3189 19.4183 17.4392 19.4183C15.5594 19.4183 14.0882 18.8517 12.8623 17.6374C11.6364 16.4231 10.9825 14.966 10.9825 13.266C10.9825 11.485 11.6364 10.0279 12.8623 8.81358C14.0882 7.59929 15.6411 7.03262 17.5209 7.03262ZM17.3574 9.21834C16.2132 9.21834 15.2325 9.6231 14.4969 10.3517C13.7613 11.0802 13.3527 12.0517 13.3527 13.266C13.3527 14.3993 13.7613 15.3707 14.4969 16.0993C15.2325 16.8279 16.2132 17.2326 17.4392 17.2326C18.6651 17.2326 19.6459 16.8279 20.3814 16.0993C21.117 15.3707 21.5256 14.3993 21.5256 13.266C21.5256 12.1326 21.117 11.1612 20.2997 10.4326C19.5641 9.6231 18.5834 9.21834 17.3574 9.21834Z" fill="white"/>
<path d="M26.7563 0.799652H29.2081V19.2568H26.7563V0.799652ZM34.684 7.11394H37.5446L32.3139 13.0235L38.6071 19.2568H35.3379L29.2081 13.0235L34.684 7.11394Z" fill="white"/>
<path d="M44.8192 7.03262C46.699 7.03262 48.2518 7.59929 49.4778 8.81358C50.7037 10.0279 51.3575 11.485 51.3575 13.3469C51.3575 15.1279 50.7037 16.585 49.4778 17.7183C48.2518 18.8517 46.6172 19.4183 44.7374 19.4183C42.8577 19.4183 41.3865 18.8517 40.1606 17.6374C38.9346 16.4231 38.2808 14.966 38.2808 13.266C38.2808 11.485 38.9346 10.0279 40.1606 8.81358C41.3865 7.59929 42.9394 7.03262 44.8192 7.03262ZM44.7374 9.21834C43.5932 9.21834 42.6125 9.6231 41.8769 10.3517C41.1413 11.0802 40.7327 12.0517 40.7327 13.266C40.7327 14.3993 41.1413 15.3707 41.8769 16.0993C42.6125 16.8279 43.5932 17.2326 44.8192 17.2326C46.0451 17.2326 47.0259 16.8279 47.7614 16.0993C48.497 15.3707 48.9057 14.3993 48.9057 13.266C48.9057 12.1326 48.497 11.1612 47.6797 10.4326C46.9441 9.6231 45.8817 9.21834 44.7374 9.21834Z" fill="white"/>
</svg>
