<svg width="157" height="48" viewBox="0 0 157 48" fill="none" xmlns="http://www.w3.org/2000/svg">
<g clip-path="url(#clip0_303_7633)">
<path fill-rule="evenodd" clip-rule="evenodd" d="M150.922 47.0079H5.8069C2.60647 47.0079 0 44.4014 0 41.2269V6.5411C0 3.35508 2.60647 0.760132 5.8069 0.760132H150.922C154.119 0.760132 156.729 3.35508 156.729 6.5411V41.2269C156.729 44.4014 154.119 47.0079 150.922 47.0079Z" fill="black"/>
<path fill-rule="evenodd" clip-rule="evenodd" d="M150.922 1.68566C153.606 1.68566 155.803 3.8683 155.803 6.5411V41.2269C155.803 43.8997 153.62 46.0824 150.922 46.0824H5.8069C3.12258 46.0824 0.925528 43.8997 0.925528 41.2269V6.5411C0.925528 3.8683 3.10816 1.68566 5.8069 1.68566H150.922ZM150.922 0.760132H5.8069C2.60647 0.760132 0 3.36661 0 6.5411V41.2269C0 44.4129 2.60647 47.0079 5.8069 47.0079H150.922C154.119 47.0079 156.729 44.4129 156.729 41.2269V6.5411C156.729 3.36661 154.119 0.760132 150.922 0.760132Z" fill="#A6A6A6"/>
<path d="M82.565 16.0587C81.5184 16.0587 80.6361 15.6926 79.9383 14.9717C79.2464 14.2711 78.86 13.3052 78.8773 12.3191C78.8773 11.2667 79.2348 10.3758 79.9383 9.66939C80.6332 8.94857 81.5155 8.5824 82.5621 8.5824C83.5972 8.5824 84.4795 8.94857 85.1887 9.66939C85.8923 10.3989 86.2498 11.2898 86.2498 12.3191C86.2382 13.3744 85.8807 14.2653 85.1887 14.9689C84.4939 15.6954 83.6116 16.0587 82.565 16.0587ZM51.423 16.0587C50.3995 16.0587 49.5114 15.6983 48.7849 14.9862C48.064 14.2769 47.6979 13.3802 47.6979 12.322C47.6979 11.2638 48.064 10.3671 48.7849 9.65786C49.497 8.94569 50.3851 8.58528 51.423 8.58528C51.9305 8.58528 52.4235 8.6862 52.8964 8.89091C53.3606 9.08985 53.7383 9.36088 54.018 9.69246L54.0872 9.77607L53.3058 10.543L53.2251 10.4479C52.7839 9.92312 52.1929 9.66651 51.4115 9.66651C50.7138 9.66651 50.1054 9.91447 49.6037 10.4046C49.0991 10.8977 48.8425 11.5435 48.8425 12.3249C48.8425 13.1063 49.0991 13.7521 49.6037 14.2452C50.1054 14.7353 50.7138 14.9833 51.4115 14.9833C52.1554 14.9833 52.781 14.7353 53.2683 14.2452C53.5566 13.9568 53.7354 13.5532 53.7988 13.0428H51.2933V11.9645H54.8743L54.8887 12.0625C54.9146 12.2442 54.9406 12.4316 54.9406 12.6046C54.9406 13.5993 54.6407 14.4037 54.0468 14.9977C53.3721 15.7012 52.4898 16.0587 51.423 16.0587ZM92.8293 15.9059H91.7251L88.343 10.494L88.3718 11.4686V15.903H87.2676V8.7381H88.5275L88.5621 8.79288L91.7424 13.8905L91.7135 12.9188V8.7381H92.8293V15.9059ZM74.267 15.9059H73.1483V9.81644H71.2079V8.7381H76.2045V9.81644H74.2641V15.9059H74.267ZM70.2968 15.9059H69.1809V8.7381H70.2968V15.9059ZM64.0257 15.9059H62.9099V9.81644H60.9695V8.7381H65.9661V9.81644H64.0257V15.9059ZM60.2631 15.8944H55.9843V8.7381H60.2631V9.81644H57.103V11.7828H59.9546V12.8496H57.103V14.816H60.2631V15.8944ZM80.7572 14.2307C81.256 14.7295 81.8615 14.9804 82.565 14.9804C83.2887 14.9804 83.8797 14.7353 84.3728 14.2307C84.8629 13.7406 85.1109 13.0976 85.1109 12.322C85.1109 11.5464 84.8629 10.9006 84.3757 10.4133C83.8769 9.91447 83.2685 9.66363 82.5679 9.66363C81.8442 9.66363 81.2531 9.9087 80.763 10.4133C80.2728 10.9034 80.0248 11.5464 80.0248 12.322C80.0248 13.0976 80.2699 13.7435 80.7572 14.2307Z" fill="white"/>
<path fill-rule="evenodd" clip-rule="evenodd" d="M78.7736 25.9138C76.0489 25.9138 73.8404 27.9811 73.8404 30.8327C73.8404 33.6583 76.0634 35.7516 78.7736 35.7516C81.4983 35.7516 83.7069 33.6699 83.7069 30.8327C83.7069 27.9811 81.4983 25.9138 78.7736 25.9138ZM78.7736 33.8025C77.283 33.8025 75.9999 32.5684 75.9999 30.8212C75.9999 29.048 77.2859 27.8399 78.7736 27.8399C80.2643 27.8399 81.5473 29.048 81.5473 30.8212C81.5502 32.58 80.2643 33.8025 78.7736 33.8025ZM68.0104 25.9138C65.2857 25.9138 63.0771 27.9811 63.0771 30.8327C63.0771 33.6583 65.3001 35.7516 68.0104 35.7516C70.7351 35.7516 72.9437 33.6699 72.9437 30.8327C72.9437 27.9811 70.7322 25.9138 68.0104 25.9138ZM68.0104 33.8025C66.5197 33.8025 65.2367 32.5684 65.2367 30.8212C65.2367 29.048 66.5226 27.8399 68.0104 27.8399C69.501 27.8399 70.7841 29.048 70.7841 30.8212C70.7841 32.58 69.501 33.8025 68.0104 33.8025ZM55.2029 27.416V29.4977H60.1996C60.0468 30.6655 59.6604 31.5276 59.0694 32.1186C58.337 32.851 57.2068 33.6468 55.2144 33.6468C52.1438 33.6468 49.742 31.1672 49.742 28.0965C49.742 25.0258 52.1438 22.5462 55.2144 22.5462C56.8723 22.5462 58.0804 23.2007 58.9771 24.0368L60.4533 22.5606C59.2078 21.3669 57.5499 20.4529 55.226 20.4529C51.0135 20.4529 47.4786 23.884 47.4786 28.0849C47.4786 32.2974 51.0106 35.717 55.226 35.717C57.5009 35.717 59.2078 34.9731 60.5571 33.5718C61.9325 32.1965 62.3678 30.2561 62.3678 28.6904C62.3678 28.2032 62.3304 27.7649 62.2525 27.393H55.2C55.2029 27.3901 55.2029 27.416 55.2029 27.416ZM107.589 29.0364C107.177 27.9321 105.931 25.9023 103.377 25.9023C100.845 25.9023 98.7403 27.8946 98.7403 30.8212C98.7403 33.5834 100.822 35.74 103.622 35.74C105.871 35.74 107.18 34.3647 107.719 33.5574L106.049 32.4387C105.496 33.2604 104.726 33.7996 103.633 33.7996C102.529 33.7996 101.756 33.2979 101.243 32.3089L107.82 29.5842C107.82 29.5871 107.589 29.0364 107.589 29.0364ZM100.883 30.6799C100.831 28.7798 102.359 27.8139 103.452 27.8139C104.314 27.8139 105.032 28.2378 105.277 28.8548L100.883 30.6799ZM95.5398 35.4459H97.6994V20.995H95.5398V35.4459ZM91.9934 27.0066H91.9156C91.4283 26.4271 90.5028 25.9023 89.3206 25.9023C86.867 25.9023 84.6065 28.0619 84.6065 30.8356C84.6065 33.5978 86.8554 35.7314 89.3206 35.7314C90.4883 35.7314 91.4283 35.2038 91.9156 34.6127H91.9934V35.3191C91.9934 37.1961 90.99 38.2081 89.3725 38.2081C88.0491 38.2081 87.2274 37.2566 86.8929 36.4609L85.0159 37.2451C85.5551 38.5426 86.9938 40.1486 89.3696 40.1486C91.9012 40.1486 94.0463 38.6579 94.0463 35.0221V26.1964H92.005V27.0066C92.0078 27.0066 91.9934 27.0066 91.9934 27.0066ZM89.5138 33.8025C88.0232 33.8025 86.7776 32.5569 86.7776 30.8356C86.7776 29.0999 88.0232 27.8427 89.5138 27.8427C90.99 27.8427 92.1347 29.1143 92.1347 30.8356C92.1491 32.5569 90.9929 33.8025 89.5138 33.8025ZM117.701 20.995H112.537V35.4459H114.696V29.9735H117.704C120.094 29.9735 122.444 28.2406 122.444 25.49C122.444 22.7393 120.102 20.995 117.701 20.995ZM117.764 27.9552H114.693V22.996H117.764C119.382 22.996 120.296 24.3309 120.296 25.4756C120.296 26.6087 119.37 27.9552 117.764 27.9552ZM131.099 25.8879C129.531 25.8879 127.913 26.5828 127.244 28.0965L129.159 28.8923C129.571 28.0965 130.326 27.8254 131.125 27.8254C132.244 27.8254 133.374 28.4944 133.4 29.688V29.8409C133.014 29.6217 132.166 29.2873 131.151 29.2873C129.084 29.2873 126.988 30.4175 126.988 32.5367C126.988 34.4772 128.683 35.7227 130.572 35.7227C132.022 35.7227 132.82 35.0682 133.319 34.3099H133.397V35.4286H135.479V29.8928C135.479 27.3151 133.564 25.8879 131.099 25.8879ZM130.828 33.8025C130.122 33.8025 129.133 33.4565 129.133 32.5684C129.133 31.4497 130.367 31.0259 131.419 31.0259C132.371 31.0259 132.821 31.2306 133.386 31.5132C133.23 32.8106 132.134 33.7909 130.828 33.8025ZM143.073 26.1964L140.594 32.4646H140.516L137.947 26.1964H135.623L139.478 34.9587L137.281 39.8285H139.53L145.461 26.1964H143.073ZM123.634 35.4459H125.794V20.995H123.634V35.4459Z" fill="white"/>
<path fill-rule="evenodd" clip-rule="evenodd" d="M12.0635 9.47049C11.7291 9.8309 11.5359 10.3816 11.5359 11.1024V36.6684C11.5359 37.3892 11.7291 37.94 12.0751 38.2859L12.1644 38.3638L26.4885 24.0397V23.7196L12.1529 9.39264L12.0635 9.47049Z" fill="url(#paint0_linear_303_7633)"/>
<path fill-rule="evenodd" clip-rule="evenodd" d="M31.2544 28.8288L26.4768 24.0512V23.7168L31.2544 18.9392L31.3582 19.0026L37.0094 22.2146C38.627 23.1257 38.627 24.6308 37.0094 25.5534L31.3582 28.7654L31.2544 28.8288Z" fill="url(#paint1_linear_303_7633)"/>
<path fill-rule="evenodd" clip-rule="evenodd" d="M31.3584 28.7654L26.477 23.884L12.0636 38.2975C12.5912 38.8626 13.4764 38.9261 14.4654 38.3753L31.3584 28.7654Z" fill="url(#paint2_linear_303_7633)"/>
<path fill-rule="evenodd" clip-rule="evenodd" d="M31.3584 19.0026L14.4654 9.40708C13.4764 8.84196 12.5884 8.91981 12.0636 9.48493L26.477 23.884L31.3584 19.0026Z" fill="url(#paint3_linear_303_7633)"/>
<path opacity="0.2" fill-rule="evenodd" clip-rule="evenodd" d="M31.2547 28.6617L14.4768 38.1937C13.5398 38.7329 12.7036 38.6954 12.1645 38.2053L12.0751 38.2947L12.1645 38.3725C12.7036 38.8598 13.5398 38.9001 14.4768 38.361L31.37 28.7655L31.2547 28.6617Z" fill="black"/>
<path opacity="0.12" fill-rule="evenodd" clip-rule="evenodd" d="M37.0096 25.3862L31.2402 28.6616L31.344 28.7654L36.9952 25.5534C37.8054 25.0921 38.2033 24.4866 38.2033 23.884C38.1543 24.4376 37.742 24.9623 37.0096 25.3862Z" fill="black"/>
<path opacity="0.25" fill-rule="evenodd" clip-rule="evenodd" d="M14.4653 9.57434L37.0095 22.3819C37.7419 22.7942 38.1542 23.3333 38.2176 23.884C38.2176 23.2814 37.8197 22.6759 37.0095 22.2146L14.4653 9.40711C12.8478 8.48158 11.5359 9.2543 11.5359 11.1025V11.2697C11.5359 9.41864 12.8478 8.66034 14.4653 9.57434Z" fill="white"/>
</g>
<defs>
<linearGradient id="paint0_linear_303_7633" x1="25.2037" y1="10.8266" x2="2.25897" y2="16.9402" gradientUnits="userSpaceOnUse">
<stop stop-color="#00A0FF"/>
<stop offset="0.00657" stop-color="#00A1FF"/>
<stop offset="0.2601" stop-color="#00BEFF"/>
<stop offset="0.5122" stop-color="#00D2FF"/>
<stop offset="0.7604" stop-color="#00DFFF"/>
<stop offset="1" stop-color="#00E3FF"/>
</linearGradient>
<linearGradient id="paint1_linear_303_7633" x1="39.1188" y1="23.8841" x2="11.1425" y2="23.8841" gradientUnits="userSpaceOnUse">
<stop stop-color="#FFE000"/>
<stop offset="0.4087" stop-color="#FFBD00"/>
<stop offset="0.7754" stop-color="#FFA500"/>
<stop offset="1" stop-color="#FF9C00"/>
</linearGradient>
<linearGradient id="paint2_linear_303_7633" x1="28.7041" y1="26.5402" x2="10.2841" y2="57.5424" gradientUnits="userSpaceOnUse">
<stop stop-color="#FF3A44"/>
<stop offset="1" stop-color="#C31162"/>
</linearGradient>
<linearGradient id="paint3_linear_303_7633" x1="8.43414" y1="0.96685" x2="16.652" y2="14.8129" gradientUnits="userSpaceOnUse">
<stop stop-color="#32A071"/>
<stop offset="0.0685" stop-color="#2DA771"/>
<stop offset="0.4762" stop-color="#15CF74"/>
<stop offset="0.8009" stop-color="#06E775"/>
<stop offset="1" stop-color="#00F076"/>
</linearGradient>
<clipPath id="clip0_303_7633">
<rect width="156.729" height="46.2478" fill="white" transform="translate(0 0.760132)"/>
</clipPath>
</defs>
</svg>
