<svg width="356" height="34" viewBox="0 0 356 34" fill="none" xmlns="http://www.w3.org/2000/svg">
<path d="M132.476 3.77732C132.476 4.76898 132.19 5.61898 131.474 6.18565C130.759 6.89398 129.901 7.17732 128.9 7.17732C128.185 7.17732 127.613 7.03565 127.184 6.75232C126.611 6.46898 126.182 6.04398 125.896 5.47732C125.61 4.91065 125.467 4.34398 125.467 3.77732C125.467 2.78565 125.753 1.93565 126.468 1.36899C127.184 0.660653 128.042 0.377319 128.9 0.377319C129.901 0.377319 130.759 0.660653 131.331 1.36899C132.047 1.93565 132.476 2.78565 132.476 3.77732Z" fill="white"/>
<path d="M157.501 25.8775C157.501 28.0025 156.643 29.8441 155.07 31.1191C153.496 32.5358 151.065 33.1025 147.918 33.1025C146.202 33.1025 144.629 32.9608 143.198 32.6775C141.768 32.3941 140.338 31.9691 138.765 31.2608V25.3108C140.195 26.1608 141.339 26.7275 142.483 27.1525C143.484 27.5775 144.629 27.7191 145.916 27.7191C148.061 27.7191 149.063 27.1525 149.063 26.0191C149.063 25.5941 148.919 25.3108 148.633 25.0275C148.347 24.7441 147.775 24.3191 147.06 24.0358C146.345 23.6108 145.344 23.1858 144.057 22.6191C142.483 21.9108 141.196 21.0608 140.052 19.9275C138.908 18.7941 138.479 17.3775 138.479 15.6775C138.479 14.5441 138.908 13.4108 139.623 12.2775C140.338 11.1441 141.482 10.2941 142.912 9.58578C144.343 8.87745 146.202 8.59412 148.204 8.59412C148.633 8.59412 149.349 8.59412 150.064 8.73578C150.779 8.87745 151.78 9.01912 152.924 9.30245C154.068 9.58578 155.213 10.0108 156.214 10.5774V16.3858C155.785 16.1025 155.356 15.8191 154.927 15.6775C154.641 15.5358 154.211 15.2525 153.639 14.9691C153.067 14.6858 152.352 14.5441 151.637 14.2608C150.922 14.1191 150.064 13.9775 149.349 13.9775C148.347 13.9775 147.775 14.1191 147.346 14.5441C146.917 14.9691 146.774 15.2525 146.774 15.6775C146.774 16.1025 146.917 16.3858 147.346 16.8108C147.775 17.2358 148.49 17.5191 149.778 18.0858C151.637 18.7941 153.067 19.5025 154.211 20.2108C155.356 20.9191 156.071 21.7691 156.643 22.6191C157.215 23.6108 157.501 24.6025 157.501 25.8775Z" fill="white"/>
<path d="M180.815 31.2599C179.957 31.6849 178.813 32.1099 177.24 32.3932C175.666 32.8182 174.236 32.9599 172.806 32.9599C166.799 32.9599 163.795 29.9849 163.795 24.1766V14.8266H159.933V13.4099L171.233 2.07656H172.234V9.15989H180.243V14.9682H172.234V22.4766C172.234 23.3266 172.234 24.0349 172.377 24.6016C172.52 25.1682 172.806 25.5932 173.235 26.0182C173.807 26.4432 174.522 26.5849 175.523 26.5849C176.811 26.5849 178.67 26.0182 180.815 24.8849V31.2599Z" fill="white"/>
<path d="M214.144 3.77732C214.144 4.76898 213.857 5.61898 213.142 6.18565C212.427 6.89398 211.569 7.17732 210.568 7.17732C209.853 7.17732 209.281 7.03565 208.852 6.75232C208.279 6.46898 207.85 6.04398 207.564 5.47732C207.278 4.91065 207.135 4.34398 207.135 3.77732C207.135 2.78565 207.421 1.93565 208.136 1.36899C208.852 0.660653 209.71 0.377319 210.568 0.377319C211.569 0.377319 212.427 0.660653 212.999 1.36899C213.714 1.93565 214.144 2.78565 214.144 3.77732Z" fill="white"/>
<path d="M300.1 31.2599C299.242 31.6849 298.098 32.1099 296.524 32.3932C294.951 32.8182 293.521 32.9599 292.091 32.9599C286.084 32.9599 283.08 29.9849 283.08 24.1766V14.8266H279.218V13.4099L290.517 2.07656H291.519V9.15989H299.528V14.9682H291.519V22.4766C291.519 23.3266 291.519 24.0349 291.662 24.6016C291.805 25.1682 292.091 25.5932 292.52 26.0182C292.949 26.4432 293.807 26.5849 294.808 26.5849C296.095 26.5849 297.955 26.0182 300.1 24.8849V31.2599Z" fill="white"/>
<path d="M329.997 20.919C329.997 23.3273 329.425 25.3107 328.424 27.1523C327.422 28.994 325.849 30.4107 323.847 31.544C321.844 32.6773 319.27 33.1023 316.409 33.1023C313.549 33.1023 310.974 32.5357 308.972 31.544C306.97 30.5523 305.396 28.994 304.395 27.1523C303.394 25.3107 302.822 23.1857 302.822 20.919C302.822 19.0773 303.108 17.519 303.68 16.1023C304.252 14.6857 305.11 13.4107 306.254 12.2773C307.399 11.144 308.829 10.294 310.545 9.72732C312.262 9.16065 314.264 8.87732 316.409 8.87732C318.698 8.87732 320.557 9.16065 322.416 9.72732C324.276 10.294 325.563 11.144 326.707 12.2773C327.851 13.4107 328.71 14.6857 329.282 16.1023C329.854 17.519 329.997 19.0773 329.997 20.919ZM321.272 20.919C321.272 19.0773 320.843 17.6607 319.985 16.5273C319.127 15.394 317.983 14.969 316.409 14.969C314.836 14.969 313.692 15.5357 312.834 16.5273C311.975 17.519 311.546 19.0773 311.546 20.919C311.546 22.7607 311.975 24.1773 312.834 25.3107C313.692 26.444 314.836 26.869 316.409 26.869C317.983 26.869 319.127 26.3023 319.985 25.3107C320.843 24.1773 321.272 22.7607 321.272 20.919Z" fill="white"/>
<path d="M130.758 32.6767C131.044 32.6767 131.759 32.6767 132.474 31.9684C132.474 31.9684 133.189 31.26 133.189 30.2684V9.16003H127.182C127.039 9.16003 126.181 9.16003 125.609 9.86837C125.609 9.86837 124.894 10.5767 124.894 11.5684V32.6767H130.758Z" fill="white"/>
<path d="M273.642 32.6767C273.785 32.6767 274.643 32.6767 275.215 31.9684C275.215 31.9684 275.93 31.26 275.93 30.2684V9.16003H269.923C269.78 9.16003 268.922 9.16003 268.35 9.86837C268.35 9.86837 267.635 10.5767 267.635 11.5684V23.0434C266.92 24.1767 266.205 25.0267 265.49 25.735C264.774 26.4434 263.773 26.7267 262.629 26.7267C261.199 26.7267 260.198 26.3017 259.768 25.31C259.339 24.3184 259.053 23.185 259.053 21.91V9.16003H250.615V23.0434C250.615 25.5934 251.187 28.0017 252.188 29.985C253.189 31.9684 255.621 33.1017 259.196 33.1017C261.056 33.1017 262.629 32.8184 263.916 32.11C265.203 31.5434 266.491 30.5517 267.635 29.2767V32.6767H273.642Z" fill="white"/>
<path d="M119.029 30.2684V0.660049H113.022C112.879 0.660049 112.021 0.660049 111.449 1.36838C111.449 1.36838 110.734 2.07672 110.734 3.06838V10.5767C110.019 10.01 109.161 9.58505 108.159 9.30171C107.158 9.01838 105.871 8.73505 104.441 8.73505C101.866 8.73505 99.8639 9.30171 98.1475 10.435C96.4312 11.5684 95.144 13.1267 94.2858 14.9684C93.4276 16.81 93.1416 18.7934 93.1416 20.9184C93.1416 23.61 93.7137 25.8767 94.7149 27.7184C95.7161 29.56 97.1464 30.835 98.8627 31.685C100.579 32.535 102.152 32.96 104.012 32.96C105.728 32.96 107.158 32.6767 108.159 32.2517C109.161 31.8267 110.019 31.1184 111.02 30.41V32.6767H117.027C117.17 32.6767 118.028 32.6767 118.6 31.9684C118.314 31.9684 119.029 31.4017 119.029 30.2684ZM110.591 25.1684C110.019 25.5934 109.447 26.0184 108.732 26.3017C108.159 26.585 107.301 26.7267 106.3 26.7267C105.013 26.7267 104.012 26.3017 103.01 25.31C102.009 24.3184 101.58 22.9017 101.58 20.7767C101.58 18.935 102.009 17.3767 102.867 16.2434C103.726 15.11 104.87 14.5434 106.157 14.5434C106.872 14.5434 107.587 14.685 108.159 14.8267C108.732 15.11 109.447 15.3934 110.448 15.96V25.1684H110.591Z" fill="white"/>
<path d="M352.733 9.16023C352.018 8.8769 351.16 8.73523 350.302 8.73523C348.442 8.73523 346.869 9.44356 345.582 10.7186C344.295 11.9936 343.293 13.4102 342.721 14.8269V9.16023H336.714C336.428 9.16023 335.713 9.3019 335.141 9.86856C335.141 9.86856 334.426 10.5769 334.426 11.5686V32.6769H340.433C340.576 32.6769 341.434 32.6769 342.006 31.9686C342.006 31.9686 342.721 31.2602 342.721 30.2686V22.4769C343.579 20.3519 344.295 18.9352 345.153 18.0852C346.011 17.2352 347.012 16.9519 348.156 16.9519C349.444 16.9519 350.731 17.5186 352.018 18.7936L355.165 10.4352C354.307 9.86856 353.448 9.44356 352.733 9.16023Z" fill="white"/>
<path d="M208.709 9.16003C208.423 9.16003 207.708 9.16003 206.993 9.86837C206.993 9.86837 206.278 10.5767 206.278 11.5684V32.6767H212.285C212.428 32.6767 213.286 32.6767 213.858 31.9684C213.858 31.9684 214.573 31.26 214.573 30.2684V9.16003H208.709Z" fill="white"/>
<path d="M202.844 9.16023C202.129 8.8769 201.271 8.73523 200.413 8.73523C198.553 8.73523 196.98 9.44356 195.693 10.7186C194.405 11.9936 193.404 13.4102 192.832 14.8269V9.16023H186.825C186.682 9.16023 185.824 9.16023 185.252 9.86856C185.252 9.86856 184.537 10.5769 184.537 11.5686V32.6769H190.544C190.687 32.6769 191.545 32.6769 192.117 31.9686C192.117 31.9686 192.832 31.2602 192.832 30.2686V22.4769C193.69 20.3519 194.405 18.9352 195.264 18.0852C196.122 17.2352 197.123 16.9519 198.267 16.9519C199.554 16.9519 200.842 17.5186 202.129 18.7936L205.276 10.4352C204.274 9.86856 203.559 9.44356 202.844 9.16023Z" fill="white"/>
<path d="M246.036 16.5267C245.606 15.11 244.891 13.6934 244.033 12.56C243.175 11.4267 241.888 10.435 240.457 9.7267C239.027 9.01837 237.311 8.73503 235.452 8.73503C234.021 8.73503 232.734 8.8767 231.733 9.3017C230.589 9.7267 229.73 10.1517 229.158 10.5767V0.660034H223.151C223.008 0.660034 222.15 0.660034 221.578 1.36837C221.578 1.36837 220.863 2.0767 220.863 3.06837V32.6767H226.87C227.013 32.6767 227.871 32.6767 228.443 31.9684C228.443 31.9684 229.158 31.26 229.158 30.2684V30.5517C229.73 30.9767 230.16 31.4017 230.732 31.685C231.304 31.9684 231.876 32.3934 232.877 32.6767C233.735 32.96 234.879 33.1017 236.167 33.1017C237.883 33.1017 239.599 32.6767 241.316 31.8267C243.032 30.9767 244.319 29.7017 245.463 27.86C246.608 26.0184 247.037 23.7517 247.037 21.06C246.608 19.5017 246.465 17.9434 246.036 16.5267ZM236.31 25.5934C235.309 26.4434 234.307 26.8684 233.163 26.8684C231.447 26.8684 230.16 26.3017 228.872 25.1684V16.2434C230.446 15.2517 231.876 14.685 233.163 14.685C234.45 14.685 235.452 15.2517 236.453 16.2434C237.311 17.235 237.883 18.7934 237.883 20.9184C237.74 23.185 237.311 24.7434 236.31 25.5934Z" fill="white"/>
<path d="M0.315918 14.545L8.32543 6.7533V11.145H15.0477V14.97H8.32543V25.3116C8.32543 27.72 9.32662 28.995 11.329 28.995C12.9023 28.995 14.4756 28.4283 16.1919 27.4366V31.4033C14.6186 32.2533 12.7593 32.82 10.8999 32.82C8.89754 32.6783 7.32424 32.1116 6.037 31.12C5.60792 30.8366 5.32186 30.4116 5.03581 29.9866C4.74975 29.5616 4.60673 28.995 4.32067 28.2866C4.03462 27.5783 4.03462 26.3033 4.03462 24.32V14.8283H0.315918V14.545Z" fill="white"/>
<path d="M29.4949 11.0023C32.7845 11.0023 35.502 11.994 37.6474 14.119C39.7928 16.244 40.937 18.794 40.937 22.0523C40.937 25.169 39.7928 27.719 37.6474 29.7023C35.502 31.6857 32.6415 32.6773 29.3519 32.6773C26.0622 32.6773 23.4878 31.6857 21.3424 29.5607C19.197 27.4357 18.0527 24.8857 18.0527 21.9107C18.0527 18.794 19.197 16.244 21.3424 14.119C23.4878 11.994 26.2053 11.0023 29.4949 11.0023ZM29.2088 14.8273C27.2065 14.8273 25.4901 15.5357 24.2029 16.8107C22.9157 18.0857 22.2005 19.7857 22.2005 21.9107C22.2005 23.894 22.9157 25.594 24.2029 26.869C25.4901 28.144 27.2065 28.8523 29.3519 28.8523C31.4973 28.8523 33.2136 28.144 34.5008 26.869C35.7881 25.594 36.5032 23.894 36.5032 21.9107C36.5032 19.9273 35.7881 18.2273 34.3578 16.9523C33.0706 15.5357 31.3542 14.8273 29.2088 14.8273Z" fill="white"/>
<path d="M45.6567 0.0946045H49.9475V32.3946H45.6567V0.0946045ZM59.5304 11.1446H64.5363L55.3826 21.4863L66.3956 32.3946H60.6746L49.9475 21.4863L59.5304 11.1446Z" fill="white"/>
<path d="M77.2669 11.0023C80.5565 11.0023 83.274 11.994 85.4194 14.119C87.5648 16.244 88.709 18.794 88.709 22.0523C88.709 25.169 87.5648 27.719 85.4194 29.7023C83.274 31.6857 80.4135 32.6773 77.1239 32.6773C73.8342 32.6773 71.2597 31.6857 69.1143 29.5607C66.9689 27.4357 65.8247 24.8857 65.8247 21.9107C65.8247 18.794 66.9689 16.244 69.1143 14.119C71.2597 11.994 73.9773 11.0023 77.2669 11.0023ZM77.1239 14.8273C75.1215 14.8273 73.4051 15.5357 72.1179 16.8107C70.8307 18.0857 70.1155 19.7857 70.1155 21.9107C70.1155 23.894 70.8307 25.594 72.1179 26.869C73.4051 28.144 75.1215 28.8523 77.2669 28.8523C79.4123 28.8523 81.1286 28.144 82.4159 26.869C83.7031 25.594 84.4182 23.894 84.4182 21.9107C84.4182 19.9273 83.7031 18.2273 82.2728 16.9523C80.9856 15.5357 79.1262 14.8273 77.1239 14.8273Z" fill="white"/>
</svg>
