<svg width="452" height="336" viewBox="0 0 452 336" fill="none" xmlns="http://www.w3.org/2000/svg">
<g filter="url(#filter0_ddd_303_7100)">
<rect x="136" y="134" width="180" height="64" rx="32" fill="white"/>
<path d="M172.496 156.326H170.106C170.038 155.934 169.912 155.587 169.729 155.284C169.545 154.977 169.317 154.717 169.045 154.504C168.772 154.291 168.461 154.131 168.112 154.025C167.766 153.914 167.393 153.859 166.993 153.859C166.281 153.859 165.651 154.038 165.101 154.396C164.551 154.749 164.121 155.269 163.81 155.955C163.499 156.637 163.343 157.47 163.343 158.455C163.343 159.456 163.499 160.3 163.81 160.986C164.125 161.668 164.555 162.183 165.101 162.533C165.651 162.878 166.279 163.05 166.987 163.05C167.379 163.05 167.745 162.999 168.086 162.897C168.431 162.79 168.74 162.635 169.013 162.43C169.29 162.226 169.522 161.974 169.71 161.676C169.901 161.378 170.033 161.037 170.106 160.653L172.496 160.666C172.407 161.288 172.213 161.872 171.915 162.418C171.621 162.963 171.235 163.445 170.758 163.862C170.281 164.276 169.722 164.599 169.083 164.834C168.444 165.064 167.734 165.179 166.955 165.179C165.804 165.179 164.777 164.913 163.874 164.38C162.97 163.847 162.259 163.078 161.739 162.072C161.219 161.067 160.959 159.861 160.959 158.455C160.959 157.044 161.221 155.838 161.745 154.837C162.269 153.831 162.983 153.062 163.886 152.529C164.79 151.996 165.813 151.73 166.955 151.73C167.683 151.73 168.361 151.832 168.987 152.037C169.614 152.241 170.172 152.542 170.662 152.938C171.152 153.33 171.555 153.812 171.87 154.383C172.19 154.95 172.398 155.597 172.496 156.326ZM176.88 159.247V165H174.566V151.909H176.829V156.85H176.944C177.174 156.296 177.53 155.859 178.011 155.54C178.497 155.216 179.115 155.054 179.865 155.054C180.547 155.054 181.141 155.197 181.648 155.482C182.155 155.768 182.547 156.185 182.824 156.735C183.106 157.285 183.246 157.956 183.246 158.749V165H180.932V159.107C180.932 158.446 180.762 157.933 180.421 157.566C180.084 157.195 179.611 157.01 179.002 157.01C178.593 157.01 178.226 157.099 177.903 157.278C177.583 157.453 177.331 157.707 177.148 158.039C176.969 158.371 176.88 158.774 176.88 159.247ZM188.43 165.198C187.808 165.198 187.248 165.087 186.749 164.866C186.255 164.64 185.863 164.308 185.573 163.869C185.287 163.43 185.145 162.888 185.145 162.245C185.145 161.691 185.247 161.233 185.452 160.871C185.656 160.509 185.935 160.219 186.289 160.001C186.643 159.784 187.041 159.62 187.484 159.509C187.932 159.394 188.394 159.311 188.871 159.26C189.447 159.2 189.913 159.147 190.271 159.1C190.629 159.049 190.889 158.972 191.051 158.87C191.217 158.763 191.3 158.599 191.3 158.378V158.339C191.3 157.858 191.157 157.485 190.872 157.221C190.586 156.957 190.175 156.825 189.638 156.825C189.072 156.825 188.622 156.948 188.29 157.195C187.961 157.442 187.74 157.734 187.625 158.071L185.464 157.764C185.635 157.168 185.916 156.669 186.308 156.268C186.7 155.864 187.18 155.561 187.746 155.361C188.313 155.156 188.939 155.054 189.626 155.054C190.099 155.054 190.569 155.109 191.038 155.22C191.507 155.331 191.935 155.514 192.323 155.77C192.711 156.021 193.022 156.364 193.256 156.799C193.495 157.234 193.614 157.777 193.614 158.429V165H191.39V163.651H191.313C191.172 163.924 190.974 164.18 190.719 164.418C190.467 164.653 190.15 164.842 189.766 164.987C189.387 165.128 188.942 165.198 188.43 165.198ZM189.031 163.498C189.496 163.498 189.898 163.406 190.239 163.223C190.58 163.036 190.842 162.788 191.025 162.482C191.213 162.175 191.307 161.84 191.307 161.478V160.321C191.234 160.381 191.111 160.436 190.936 160.487C190.765 160.538 190.574 160.583 190.361 160.621C190.148 160.66 189.937 160.694 189.728 160.724C189.519 160.754 189.338 160.779 189.184 160.8C188.839 160.847 188.53 160.924 188.258 161.031C187.985 161.137 187.77 161.286 187.612 161.478C187.454 161.665 187.376 161.908 187.376 162.207C187.376 162.633 187.531 162.955 187.842 163.172C188.153 163.389 188.55 163.498 189.031 163.498ZM200.844 155.182V156.972H195.199V155.182H200.844ZM196.593 152.83H198.907V162.047C198.907 162.358 198.954 162.597 199.047 162.763C199.145 162.925 199.273 163.036 199.431 163.095C199.589 163.155 199.763 163.185 199.955 163.185C200.1 163.185 200.232 163.174 200.351 163.153C200.475 163.131 200.569 163.112 200.633 163.095L201.023 164.904C200.899 164.947 200.722 164.994 200.492 165.045C200.266 165.096 199.989 165.126 199.661 165.134C199.081 165.151 198.559 165.064 198.095 164.872C197.631 164.676 197.262 164.374 196.989 163.964C196.721 163.555 196.589 163.044 196.593 162.43V152.83ZM209.353 161.919L209.347 159.126H209.717L213.246 155.182H215.95L211.609 160.014H211.13L209.353 161.919ZM207.244 165V151.909H209.558V165H207.244ZM213.406 165L210.21 160.532L211.769 158.902L216.173 165H213.406ZM220.317 165.198C219.695 165.198 219.134 165.087 218.636 164.866C218.142 164.64 217.749 164.308 217.46 163.869C217.174 163.43 217.031 162.888 217.031 162.245C217.031 161.691 217.134 161.233 217.338 160.871C217.543 160.509 217.822 160.219 218.176 160.001C218.529 159.784 218.928 159.62 219.371 159.509C219.818 159.394 220.281 159.311 220.758 159.26C221.333 159.2 221.8 159.147 222.158 159.1C222.516 159.049 222.776 158.972 222.938 158.87C223.104 158.763 223.187 158.599 223.187 158.378V158.339C223.187 157.858 223.044 157.485 222.759 157.221C222.473 156.957 222.062 156.825 221.525 156.825C220.958 156.825 220.509 156.948 220.176 157.195C219.848 157.442 219.627 157.734 219.512 158.071L217.351 157.764C217.521 157.168 217.803 156.669 218.195 156.268C218.587 155.864 219.066 155.561 219.633 155.361C220.2 155.156 220.826 155.054 221.512 155.054C221.985 155.054 222.456 155.109 222.925 155.22C223.394 155.331 223.822 155.514 224.21 155.77C224.597 156.021 224.909 156.364 225.143 156.799C225.382 157.234 225.501 157.777 225.501 158.429V165H223.276V163.651H223.2C223.059 163.924 222.861 164.18 222.605 164.418C222.354 164.653 222.036 164.842 221.653 164.987C221.274 165.128 220.828 165.198 220.317 165.198ZM220.918 163.498C221.382 163.498 221.785 163.406 222.126 163.223C222.467 163.036 222.729 162.788 222.912 162.482C223.1 162.175 223.193 161.84 223.193 161.478V160.321C223.121 160.381 222.997 160.436 222.823 160.487C222.652 160.538 222.46 160.583 222.247 160.621C222.034 160.66 221.823 160.694 221.615 160.724C221.406 160.754 221.225 160.779 221.071 160.8C220.726 160.847 220.417 160.924 220.144 161.031C219.872 161.137 219.656 161.286 219.499 161.478C219.341 161.665 219.262 161.908 219.262 162.207C219.262 162.633 219.418 162.955 219.729 163.172C220.04 163.389 220.436 163.498 220.918 163.498ZM227.828 165V155.182H230.039V156.85H230.154C230.359 156.288 230.698 155.849 231.171 155.533C231.644 155.214 232.208 155.054 232.865 155.054C233.529 155.054 234.09 155.216 234.546 155.54C235.006 155.859 235.33 156.296 235.517 156.85H235.619C235.837 156.305 236.203 155.87 236.719 155.546C237.239 155.218 237.855 155.054 238.566 155.054C239.47 155.054 240.207 155.339 240.778 155.911C241.349 156.482 241.634 157.315 241.634 158.41V165H239.314V158.768C239.314 158.158 239.152 157.713 238.828 157.432C238.504 157.146 238.108 157.004 237.639 157.004C237.081 157.004 236.644 157.178 236.329 157.528C236.018 157.873 235.862 158.322 235.862 158.876V165H233.593V158.672C233.593 158.165 233.44 157.76 233.133 157.457C232.83 157.155 232.434 157.004 231.944 157.004C231.612 157.004 231.309 157.089 231.036 157.259C230.764 157.425 230.546 157.662 230.384 157.969C230.222 158.271 230.142 158.625 230.142 159.03V165H227.828ZM243.982 165V155.182H246.296V165H243.982ZM245.145 153.788C244.779 153.788 244.463 153.667 244.199 153.424C243.935 153.177 243.803 152.881 243.803 152.536C243.803 152.186 243.935 151.89 244.199 151.647C244.463 151.4 244.779 151.276 245.145 151.276C245.516 151.276 245.831 151.4 246.091 151.647C246.355 151.89 246.488 152.186 246.488 152.536C246.488 152.881 246.355 153.177 246.091 153.424C245.831 153.667 245.516 153.788 245.145 153.788Z" fill="#262626"/>
<path d="M162.756 182.107C162.315 182.107 161.922 181.994 161.577 181.769C161.233 181.542 160.964 181.219 160.767 180.8C160.573 180.378 160.476 179.873 160.476 179.283C160.476 178.694 160.574 178.19 160.771 177.771C160.969 177.352 161.242 177.031 161.587 176.808C161.933 176.586 162.325 176.474 162.763 176.474C163.101 176.474 163.374 176.531 163.58 176.645C163.788 176.756 163.949 176.886 164.062 177.036C164.179 177.185 164.268 177.316 164.332 177.43H164.396V174.727H165.458V182H164.421V181.151H164.332C164.268 181.267 164.176 181.4 164.055 181.549C163.937 181.698 163.774 181.828 163.565 181.94C163.357 182.051 163.087 182.107 162.756 182.107ZM162.99 181.201C163.295 181.201 163.554 181.121 163.764 180.96C163.977 180.796 164.138 180.57 164.247 180.281C164.358 179.992 164.414 179.656 164.414 179.273C164.414 178.894 164.36 178.562 164.251 178.278C164.142 177.994 163.982 177.773 163.771 177.614C163.561 177.456 163.3 177.376 162.99 177.376C162.67 177.376 162.404 177.459 162.191 177.625C161.978 177.791 161.817 178.017 161.708 178.303C161.602 178.59 161.548 178.913 161.548 179.273C161.548 179.637 161.603 179.965 161.712 180.256C161.821 180.548 161.982 180.778 162.195 180.949C162.41 181.117 162.675 181.201 162.99 181.201ZM166.974 182V176.545H168.035V182H166.974ZM167.51 175.704C167.325 175.704 167.166 175.642 167.034 175.519C166.904 175.394 166.839 175.245 166.839 175.072C166.839 174.897 166.904 174.747 167.034 174.624C167.166 174.499 167.325 174.436 167.51 174.436C167.694 174.436 167.852 174.499 167.982 174.624C168.115 174.747 168.181 174.897 168.181 175.072C168.181 175.245 168.115 175.394 167.982 175.519C167.852 175.642 167.694 175.704 167.51 175.704ZM173.619 182L171.602 174.727H172.757L174.173 180.359H174.241L175.715 174.727H176.858L178.332 180.363H178.399L179.813 174.727H180.97L178.95 182H177.845L176.315 176.553H176.258L174.727 182H173.619ZM182.947 178.761V182H181.886V174.727H182.933V177.433H183.001C183.129 177.14 183.324 176.906 183.587 176.734C183.849 176.561 184.193 176.474 184.616 176.474C184.991 176.474 185.317 176.551 185.597 176.705C185.878 176.859 186.096 177.089 186.25 177.394C186.406 177.697 186.484 178.076 186.484 178.531V182H185.423V178.658C185.423 178.258 185.32 177.948 185.114 177.728C184.908 177.505 184.621 177.394 184.254 177.394C184.003 177.394 183.778 177.447 183.58 177.554C183.383 177.661 183.228 177.817 183.114 178.023C183.003 178.226 182.947 178.473 182.947 178.761ZM189.489 182.121C189.143 182.121 188.83 182.057 188.551 181.929C188.272 181.799 188.05 181.611 187.887 181.364C187.726 181.118 187.646 180.816 187.646 180.459C187.646 180.151 187.705 179.898 187.823 179.699C187.942 179.5 188.101 179.343 188.303 179.227C188.504 179.111 188.729 179.023 188.977 178.964C189.226 178.905 189.479 178.86 189.737 178.829C190.064 178.791 190.329 178.76 190.533 178.737C190.736 178.71 190.884 178.669 190.977 178.612C191.069 178.555 191.115 178.463 191.115 178.335V178.31C191.115 178 191.027 177.76 190.852 177.589C190.679 177.419 190.421 177.334 190.078 177.334C189.721 177.334 189.439 177.413 189.233 177.572C189.029 177.728 188.888 177.902 188.81 178.094L187.812 177.866C187.931 177.535 188.104 177.268 188.331 177.064C188.561 176.858 188.825 176.709 189.123 176.616C189.421 176.522 189.735 176.474 190.064 176.474C190.282 176.474 190.513 176.5 190.756 176.553C191.003 176.602 191.232 176.695 191.445 176.83C191.661 176.964 191.837 177.157 191.974 177.408C192.112 177.657 192.18 177.98 192.18 178.378V182H191.143V181.254H191.101C191.032 181.392 190.929 181.527 190.792 181.659C190.655 181.792 190.478 181.902 190.263 181.989C190.047 182.077 189.789 182.121 189.489 182.121ZM189.719 181.268C190.013 181.268 190.264 181.21 190.472 181.094C190.683 180.978 190.843 180.827 190.952 180.64C191.063 180.451 191.119 180.248 191.119 180.033V179.33C191.081 179.367 191.007 179.403 190.898 179.436C190.792 179.467 190.67 179.494 190.533 179.518C190.395 179.539 190.262 179.559 190.131 179.578C190.001 179.595 189.892 179.609 189.805 179.621C189.599 179.647 189.411 179.691 189.24 179.752C189.072 179.814 188.937 179.902 188.835 180.018C188.736 180.132 188.686 180.284 188.686 180.473C188.686 180.736 188.783 180.935 188.977 181.07C189.171 181.202 189.419 181.268 189.719 181.268ZM196.141 176.545V177.398H193.161V176.545H196.141ZM193.96 175.239H195.022V180.398C195.022 180.604 195.053 180.759 195.115 180.864C195.176 180.965 195.255 181.035 195.352 181.073C195.452 181.109 195.56 181.126 195.676 181.126C195.761 181.126 195.835 181.121 195.899 181.109C195.963 181.097 196.013 181.087 196.048 181.08L196.24 181.957C196.179 181.981 196.091 182.005 195.977 182.028C195.864 182.054 195.722 182.069 195.551 182.071C195.272 182.076 195.012 182.026 194.77 181.922C194.529 181.818 194.333 181.657 194.184 181.439C194.035 181.221 193.96 180.948 193.96 180.619V175.239ZM201.315 177.877L200.352 178.048C200.312 177.924 200.248 177.807 200.161 177.696C200.075 177.585 199.959 177.494 199.813 177.423C199.666 177.352 199.482 177.316 199.262 177.316C198.962 177.316 198.711 177.384 198.509 177.518C198.308 177.651 198.208 177.823 198.208 178.033C198.208 178.216 198.275 178.362 198.41 178.474C198.545 178.585 198.763 178.676 199.063 178.747L199.93 178.946C200.432 179.062 200.806 179.241 201.052 179.482C201.298 179.724 201.421 180.037 201.421 180.423C201.421 180.75 201.327 181.041 201.137 181.297C200.95 181.55 200.689 181.749 200.352 181.893C200.019 182.038 199.632 182.11 199.191 182.11C198.58 182.11 198.082 181.98 197.696 181.719C197.31 181.457 197.074 181.084 196.986 180.601L198.012 180.445C198.076 180.712 198.208 180.915 198.406 181.052C198.605 181.187 198.865 181.254 199.184 181.254C199.532 181.254 199.81 181.182 200.019 181.038C200.227 180.891 200.331 180.712 200.331 180.501C200.331 180.331 200.267 180.188 200.139 180.072C200.014 179.956 199.821 179.868 199.561 179.809L198.637 179.607C198.128 179.491 197.752 179.306 197.508 179.053C197.267 178.799 197.146 178.478 197.146 178.09C197.146 177.768 197.236 177.487 197.416 177.245C197.596 177.004 197.844 176.815 198.161 176.68C198.479 176.543 198.842 176.474 199.252 176.474C199.841 176.474 200.305 176.602 200.644 176.858C200.982 177.111 201.206 177.451 201.315 177.877ZM203.288 182H202.124L204.741 174.727H206.009L208.626 182H207.461L205.405 176.048H205.348L203.288 182ZM203.484 179.152H207.262V180.075H203.484V179.152ZM209.591 184.045V176.545H210.628V177.43H210.716C210.778 177.316 210.867 177.185 210.983 177.036C211.099 176.886 211.26 176.756 211.466 176.645C211.672 176.531 211.944 176.474 212.282 176.474C212.723 176.474 213.116 176.586 213.461 176.808C213.807 177.031 214.078 177.352 214.275 177.771C214.474 178.19 214.573 178.694 214.573 179.283C214.573 179.873 214.475 180.378 214.278 180.8C214.082 181.219 213.812 181.542 213.469 181.769C213.125 181.994 212.733 182.107 212.293 182.107C211.962 182.107 211.691 182.051 211.48 181.94C211.272 181.828 211.108 181.698 210.99 181.549C210.872 181.4 210.78 181.267 210.716 181.151H210.653V184.045H209.591ZM210.631 179.273C210.631 179.656 210.687 179.992 210.798 180.281C210.909 180.57 211.07 180.796 211.281 180.96C211.492 181.121 211.75 181.201 212.055 181.201C212.372 181.201 212.638 181.117 212.851 180.949C213.064 180.778 213.225 180.548 213.334 180.256C213.445 179.965 213.501 179.637 213.501 179.273C213.501 178.913 213.446 178.59 213.337 178.303C213.231 178.017 213.07 177.791 212.854 177.625C212.641 177.459 212.375 177.376 212.055 177.376C211.747 177.376 211.487 177.456 211.274 177.614C211.063 177.773 210.903 177.994 210.795 178.278C210.686 178.562 210.631 178.894 210.631 179.273ZM215.763 184.045V176.545H216.8V177.43H216.888C216.95 177.316 217.039 177.185 217.155 177.036C217.271 176.886 217.432 176.756 217.638 176.645C217.844 176.531 218.116 176.474 218.454 176.474C218.895 176.474 219.288 176.586 219.633 176.808C219.979 177.031 220.25 177.352 220.447 177.771C220.645 178.19 220.745 178.694 220.745 179.283C220.745 179.873 220.647 180.378 220.45 180.8C220.254 181.219 219.984 181.542 219.64 181.769C219.297 181.994 218.905 182.107 218.465 182.107C218.134 182.107 217.863 182.051 217.652 181.94C217.443 181.828 217.28 181.698 217.162 181.549C217.043 181.4 216.952 181.267 216.888 181.151H216.824V184.045H215.763ZM216.803 179.273C216.803 179.656 216.859 179.992 216.97 180.281C217.081 180.57 217.242 180.796 217.453 180.96C217.664 181.121 217.922 181.201 218.227 181.201C218.544 181.201 218.809 181.117 219.023 180.949C219.236 180.778 219.397 180.548 219.506 180.256C219.617 179.965 219.672 179.637 219.672 179.273C219.672 178.913 219.618 178.59 219.509 178.303C219.403 178.017 219.242 177.791 219.026 177.625C218.813 177.459 218.547 177.376 218.227 177.376C217.919 177.376 217.659 177.456 217.446 177.614C217.235 177.773 217.075 177.994 216.966 178.278C216.858 178.562 216.803 178.894 216.803 179.273Z" fill="#737373"/>
<g clip-path="url(#clip0_303_7100)">
<path d="M260.743 182C260.564 182 260.389 181.929 260.259 181.798C260.088 181.625 260.022 181.374 260.087 181.139L262.167 173.543C260.872 171.201 260.189 168.551 260.19 165.862C260.194 157.115 267.311 150 276.057 150C280.299 150.002 284.285 151.654 287.28 154.652C290.276 157.65 291.925 161.636 291.924 165.875C291.92 174.621 284.802 181.737 276.057 181.737C276.057 181.737 276.05 181.737 276.05 181.737C273.496 181.736 270.963 181.114 268.708 179.934L260.916 181.978C260.859 181.993 260.801 182 260.743 182Z" fill="#E5E5E5"/>
<path d="M260.743 181.319L262.897 173.452C261.569 171.149 260.87 168.538 260.871 165.862C260.874 157.491 267.686 150.681 276.057 150.681C280.119 150.682 283.931 152.263 286.799 155.133C289.666 158.003 291.244 161.817 291.242 165.874C291.239 174.245 284.426 181.056 276.057 181.056C276.056 181.056 276.057 181.056 276.057 181.056H276.05C273.509 181.055 271.011 180.417 268.793 179.208L260.743 181.319ZM269.166 176.459L269.627 176.733C271.565 177.882 273.786 178.491 276.052 178.492H276.057C283.013 178.492 288.675 172.831 288.678 165.873C288.679 162.501 287.368 159.331 284.985 156.946C282.602 154.561 279.433 153.246 276.061 153.245C269.099 153.245 263.437 158.905 263.435 165.863C263.434 168.247 264.101 170.569 265.364 172.578L265.665 173.056L264.389 177.712L269.166 176.459Z" fill="white"/>
<path d="M261.271 180.79L263.351 173.195C262.068 170.972 261.394 168.45 261.394 165.867C261.397 157.786 267.974 151.212 276.054 151.212C279.976 151.214 283.657 152.74 286.424 155.51C289.192 158.281 290.716 161.963 290.714 165.879C290.711 173.96 284.134 180.535 276.055 180.535C276.054 180.535 276.055 180.535 276.055 180.535H276.048C273.595 180.534 271.184 179.919 269.043 178.752L261.271 180.79Z" fill="#64B161"/>
<path d="M260.743 181.319L262.897 173.452C261.569 171.149 260.87 168.538 260.871 165.862C260.874 157.491 267.686 150.681 276.057 150.681C280.119 150.682 283.931 152.263 286.799 155.133C289.666 158.003 291.244 161.817 291.242 165.874C291.239 174.245 284.426 181.056 276.057 181.056C276.056 181.056 276.057 181.056 276.057 181.056H276.05C273.509 181.055 271.011 180.417 268.793 179.208L260.743 181.319ZM269.166 176.459L269.627 176.733C271.565 177.882 273.786 178.491 276.052 178.492H276.057C283.013 178.492 288.675 172.831 288.678 165.873C288.679 162.501 287.368 159.331 284.985 156.946C282.602 154.561 279.433 153.246 276.061 153.245C269.099 153.245 263.437 158.905 263.435 165.863C263.434 168.247 264.101 170.569 265.364 172.578L265.665 173.056L264.389 177.712L269.166 176.459Z" fill="white"/>
<path fill-rule="evenodd" clip-rule="evenodd" d="M272.261 159.515C271.977 158.883 271.677 158.871 271.407 158.86C271.186 158.85 270.933 158.851 270.68 158.851C270.427 158.851 270.016 158.946 269.668 159.325C269.32 159.705 268.34 160.623 268.34 162.49C268.34 164.357 269.7 166.161 269.889 166.415C270.079 166.668 272.514 170.621 276.371 172.142C279.576 173.407 280.228 173.155 280.924 173.092C281.62 173.029 283.169 172.174 283.485 171.288C283.802 170.402 283.802 169.643 283.707 169.484C283.612 169.326 283.359 169.231 282.979 169.041C282.6 168.851 280.735 167.933 280.387 167.807C280.039 167.68 279.786 167.617 279.533 167.997C279.28 168.376 278.553 169.231 278.332 169.484C278.11 169.737 277.889 169.769 277.51 169.579C277.13 169.389 275.908 168.989 274.458 167.696C273.33 166.69 272.569 165.448 272.347 165.068C272.126 164.689 272.343 164.501 272.514 164.294C272.821 163.921 273.336 163.25 273.462 162.997C273.589 162.743 273.525 162.522 273.431 162.332C273.336 162.142 272.598 160.266 272.261 159.515Z" fill="white"/>
</g>
</g>
<defs>
<filter id="filter0_ddd_303_7100" x="0" y="0" width="452" height="336" filterUnits="userSpaceOnUse" color-interpolation-filters="sRGB">
<feFlood flood-opacity="0" result="BackgroundImageFix"/>
<feColorMatrix in="SourceAlpha" type="matrix" values="0 0 0 0 0 0 0 0 0 0 0 0 0 0 0 0 0 0 127 0" result="hardAlpha"/>
<feOffset dy="5.45308"/>
<feGaussianBlur stdDeviation="4.52207"/>
<feColorMatrix type="matrix" values="0 0 0 0 0.164706 0 0 0 0 0.164706 0 0 0 0 0.164706 0 0 0 0.0484671 0"/>
<feBlend mode="normal" in2="BackgroundImageFix" result="effect1_dropShadow_303_7100"/>
<feColorMatrix in="SourceAlpha" type="matrix" values="0 0 0 0 0 0 0 0 0 0 0 0 0 0 0 0 0 0 127 0" result="hardAlpha"/>
<feOffset dy="8.32"/>
<feGaussianBlur stdDeviation="15.1887"/>
<feColorMatrix type="matrix" values="0 0 0 0 0.164706 0 0 0 0 0.164706 0 0 0 0 0.164706 0 0 0 0.0715329 0"/>
<feBlend mode="normal" in2="effect1_dropShadow_303_7100" result="effect2_dropShadow_303_7100"/>
<feColorMatrix in="SourceAlpha" type="matrix" values="0 0 0 0 0 0 0 0 0 0 0 0 0 0 0 0 0 0 127 0" result="hardAlpha"/>
<feOffset dy="2"/>
<feGaussianBlur stdDeviation="68"/>
<feColorMatrix type="matrix" values="0 0 0 0 0.164706 0 0 0 0 0.164706 0 0 0 0 0.164706 0 0 0 0.12 0"/>
<feBlend mode="normal" in2="effect2_dropShadow_303_7100" result="effect3_dropShadow_303_7100"/>
<feBlend mode="normal" in="SourceGraphic" in2="effect3_dropShadow_303_7100" result="shape"/>
</filter>
<clipPath id="clip0_303_7100">
<rect width="32" height="32" fill="white" transform="translate(260 150)"/>
</clipPath>
</defs>
</svg>
