<svg width="320" height="210" viewBox="0 0 320 210" fill="none" xmlns="http://www.w3.org/2000/svg">
<g filter="url(#filter0_ddd_301_9799)">
<rect x="81.5" y="134" width="157" height="56" rx="28" fill="white"/>
<path d="M123.663 161V159.287L128.208 154.832C128.643 154.393 129.005 154.003 129.295 153.662C129.585 153.321 129.802 152.991 129.947 152.671C130.092 152.352 130.164 152.011 130.164 151.648C130.164 151.235 130.07 150.881 129.883 150.587C129.695 150.289 129.438 150.059 129.109 149.897C128.781 149.735 128.408 149.654 127.991 149.654C127.56 149.654 127.183 149.744 126.859 149.923C126.536 150.097 126.284 150.347 126.105 150.67C125.93 150.994 125.843 151.38 125.843 151.827H123.587C123.587 150.996 123.776 150.274 124.156 149.661C124.535 149.047 125.057 148.572 125.722 148.235C126.391 147.898 127.158 147.73 128.023 147.73C128.901 147.73 129.672 147.894 130.337 148.222C131.001 148.55 131.517 149 131.884 149.571C132.254 150.142 132.44 150.794 132.44 151.527C132.44 152.017 132.346 152.499 132.158 152.972C131.971 153.445 131.641 153.969 131.168 154.544C130.699 155.119 130.04 155.816 129.192 156.634L126.936 158.929V159.018H132.638V161H123.663ZM134.325 158.571V156.685L139.88 147.909H141.452V150.594H140.494L136.754 156.519V156.621H144.508V158.571H134.325ZM140.57 161V157.996L140.596 157.152V147.909H142.833V161H140.57ZM151.843 147.909H154.195V157.114C154.191 157.957 154.012 158.684 153.658 159.293C153.304 159.898 152.81 160.365 152.175 160.693C151.544 161.017 150.809 161.179 149.97 161.179C149.203 161.179 148.512 161.043 147.899 160.77C147.289 160.493 146.806 160.084 146.448 159.543C146.09 159.001 145.911 158.328 145.911 157.523H148.27C148.274 157.876 148.35 158.181 148.5 158.437C148.653 158.692 148.864 158.888 149.132 159.025C149.401 159.161 149.71 159.229 150.059 159.229C150.439 159.229 150.76 159.151 151.025 158.993C151.289 158.831 151.489 158.592 151.625 158.277C151.766 157.962 151.838 157.574 151.843 157.114V147.909ZM159.491 161.198C158.869 161.198 158.308 161.087 157.81 160.866C157.315 160.64 156.923 160.308 156.634 159.869C156.348 159.43 156.205 158.888 156.205 158.245C156.205 157.691 156.308 157.233 156.512 156.871C156.717 156.509 156.996 156.219 157.349 156.001C157.703 155.784 158.102 155.62 158.545 155.509C158.992 155.394 159.455 155.311 159.932 155.26C160.507 155.2 160.974 155.147 161.332 155.1C161.69 155.049 161.95 154.972 162.112 154.87C162.278 154.763 162.361 154.599 162.361 154.378V154.339C162.361 153.858 162.218 153.485 161.933 153.221C161.647 152.957 161.236 152.825 160.699 152.825C160.132 152.825 159.683 152.948 159.35 153.195C159.022 153.442 158.8 153.734 158.685 154.071L156.525 153.764C156.695 153.168 156.977 152.669 157.369 152.268C157.761 151.864 158.24 151.561 158.807 151.361C159.374 151.156 160 151.054 160.686 151.054C161.159 151.054 161.63 151.109 162.099 151.22C162.567 151.331 162.996 151.514 163.384 151.77C163.771 152.021 164.082 152.364 164.317 152.799C164.555 153.234 164.675 153.777 164.675 154.429V161H162.45V159.651H162.374C162.233 159.924 162.035 160.18 161.779 160.418C161.528 160.653 161.21 160.842 160.827 160.987C160.447 161.128 160.002 161.198 159.491 161.198ZM160.092 159.498C160.556 159.498 160.959 159.406 161.3 159.223C161.641 159.036 161.903 158.788 162.086 158.482C162.273 158.175 162.367 157.84 162.367 157.478V156.321C162.295 156.381 162.171 156.436 161.996 156.487C161.826 156.538 161.634 156.583 161.421 156.621C161.208 156.66 160.997 156.694 160.788 156.724C160.58 156.754 160.398 156.779 160.245 156.8C159.9 156.847 159.591 156.924 159.318 157.031C159.045 157.137 158.83 157.286 158.673 157.478C158.515 157.665 158.436 157.908 158.436 158.207C158.436 158.633 158.592 158.955 158.903 159.172C159.214 159.389 159.61 159.498 160.092 159.498ZM167.001 161V151.182H169.213V152.85H169.328C169.533 152.288 169.871 151.849 170.344 151.533C170.817 151.214 171.382 151.054 172.038 151.054C172.703 151.054 173.263 151.216 173.719 151.54C174.18 151.859 174.504 152.296 174.691 152.85H174.793C175.011 152.305 175.377 151.87 175.893 151.546C176.413 151.218 177.028 151.054 177.74 151.054C178.643 151.054 179.381 151.339 179.952 151.911C180.523 152.482 180.808 153.315 180.808 154.41V161H178.488V154.768C178.488 154.158 178.326 153.713 178.002 153.432C177.678 153.146 177.282 153.004 176.813 153.004C176.255 153.004 175.818 153.178 175.503 153.528C175.192 153.873 175.036 154.322 175.036 154.876V161H172.767V154.672C172.767 154.165 172.614 153.76 172.307 153.457C172.004 153.155 171.608 153.004 171.118 153.004C170.786 153.004 170.483 153.089 170.21 153.259C169.938 153.425 169.72 153.662 169.558 153.969C169.396 154.271 169.315 154.625 169.315 155.03V161H167.001Z" fill="#262626"/>
<path d="M100.339 173.092H99.2315C99.1889 172.856 99.1096 172.647 98.9936 172.467C98.8776 172.287 98.7356 172.135 98.5675 172.009C98.3994 171.884 98.2112 171.789 98.0028 171.725C97.7969 171.661 97.5779 171.629 97.3459 171.629C96.9268 171.629 96.5516 171.735 96.2202 171.945C95.8911 172.156 95.6307 172.465 95.4389 172.872C95.2495 173.279 95.1548 173.777 95.1548 174.364C95.1548 174.955 95.2495 175.455 95.4389 175.862C95.6307 176.269 95.8923 176.577 96.2237 176.786C96.5552 176.994 96.928 177.098 97.3423 177.098C97.572 177.098 97.7898 177.067 97.9957 177.006C98.2041 176.942 98.3923 176.848 98.5604 176.725C98.7285 176.602 98.8705 176.452 98.9865 176.274C99.1049 176.094 99.1866 175.888 99.2315 175.656L100.339 175.66C100.28 176.017 100.165 176.346 99.995 176.647C99.8269 176.945 99.6103 177.203 99.3452 177.421C99.0824 177.637 98.7817 177.804 98.4432 177.922C98.1046 178.04 97.7353 178.099 97.3352 178.099C96.7055 178.099 96.1444 177.95 95.652 177.652C95.1596 177.351 94.7713 176.922 94.4872 176.363C94.2055 175.804 94.0646 175.138 94.0646 174.364C94.0646 173.587 94.2067 172.921 94.4908 172.364C94.7749 171.806 95.1631 171.377 95.6555 171.079C96.148 170.778 96.7079 170.628 97.3352 170.628C97.7211 170.628 98.081 170.683 98.4148 170.795C98.7509 170.904 99.0528 171.065 99.3203 171.278C99.5878 171.488 99.8092 171.746 99.9844 172.052C100.16 172.355 100.278 172.702 100.339 173.092ZM105.023 175.738V172.545H106.088V178H105.044V177.055H104.987C104.862 177.347 104.66 177.589 104.383 177.783C104.109 177.975 103.767 178.071 103.357 178.071C103.007 178.071 102.697 177.994 102.427 177.84C102.159 177.684 101.948 177.453 101.795 177.148C101.643 176.842 101.567 176.465 101.567 176.015V172.545H102.629V175.887C102.629 176.259 102.732 176.555 102.938 176.775C103.144 176.995 103.412 177.105 103.741 177.105C103.939 177.105 104.137 177.055 104.334 176.956C104.532 176.857 104.697 176.706 104.827 176.505C104.96 176.304 105.025 176.048 105.023 175.738ZM111.602 173.877L110.64 174.048C110.599 173.924 110.535 173.807 110.448 173.696C110.363 173.585 110.247 173.494 110.1 173.423C109.953 173.352 109.77 173.316 109.549 173.316C109.249 173.316 108.998 173.384 108.797 173.518C108.595 173.651 108.495 173.823 108.495 174.033C108.495 174.216 108.562 174.362 108.697 174.474C108.832 174.585 109.05 174.676 109.35 174.747L110.217 174.946C110.719 175.062 111.093 175.241 111.339 175.482C111.585 175.724 111.708 176.037 111.708 176.423C111.708 176.75 111.614 177.041 111.424 177.297C111.237 177.55 110.976 177.749 110.64 177.893C110.306 178.038 109.919 178.11 109.478 178.11C108.868 178.11 108.369 177.98 107.983 177.719C107.597 177.457 107.361 177.084 107.273 176.601L108.299 176.445C108.363 176.712 108.495 176.915 108.694 177.052C108.892 177.187 109.152 177.254 109.471 177.254C109.819 177.254 110.097 177.182 110.306 177.038C110.514 176.891 110.618 176.712 110.618 176.501C110.618 176.331 110.554 176.188 110.426 176.072C110.301 175.956 110.108 175.868 109.848 175.809L108.924 175.607C108.415 175.491 108.039 175.306 107.795 175.053C107.554 174.799 107.433 174.478 107.433 174.09C107.433 173.768 107.523 173.487 107.703 173.245C107.883 173.004 108.131 172.815 108.449 172.68C108.766 172.543 109.129 172.474 109.539 172.474C110.128 172.474 110.592 172.602 110.931 172.858C111.269 173.111 111.493 173.451 111.602 173.877ZM115.422 172.545V173.398H112.443V172.545H115.422ZM113.242 171.239H114.303V176.398C114.303 176.604 114.334 176.759 114.396 176.864C114.457 176.965 114.537 177.035 114.634 177.073C114.733 177.109 114.841 177.126 114.957 177.126C115.042 177.126 115.117 177.121 115.181 177.109C115.244 177.097 115.294 177.087 115.33 177.08L115.521 177.957C115.46 177.981 115.372 178.005 115.259 178.028C115.145 178.054 115.003 178.069 114.833 178.071C114.553 178.076 114.293 178.026 114.051 177.922C113.81 177.818 113.615 177.657 113.465 177.439C113.316 177.221 113.242 176.948 113.242 176.619V171.239ZM118.836 178.11C118.324 178.11 117.878 177.993 117.497 177.759C117.116 177.524 116.82 177.196 116.609 176.775C116.398 176.353 116.293 175.861 116.293 175.298C116.293 174.732 116.398 174.237 116.609 173.813C116.82 173.389 117.116 173.06 117.497 172.826C117.878 172.592 118.324 172.474 118.836 172.474C119.347 172.474 119.793 172.592 120.174 172.826C120.556 173.06 120.851 173.389 121.062 173.813C121.273 174.237 121.378 174.732 121.378 175.298C121.378 175.861 121.273 176.353 121.062 176.775C120.851 177.196 120.556 177.524 120.174 177.759C119.793 177.993 119.347 178.11 118.836 178.11ZM118.839 177.219C119.171 177.219 119.445 177.131 119.663 176.956C119.881 176.781 120.042 176.548 120.146 176.256C120.252 175.965 120.306 175.644 120.306 175.294C120.306 174.946 120.252 174.626 120.146 174.335C120.042 174.042 119.881 173.806 119.663 173.629C119.445 173.451 119.171 173.362 118.839 173.362C118.505 173.362 118.228 173.451 118.008 173.629C117.79 173.806 117.628 174.042 117.522 174.335C117.417 174.626 117.365 174.946 117.365 175.294C117.365 175.644 117.417 175.965 117.522 176.256C117.628 176.548 117.79 176.781 118.008 176.956C118.228 177.131 118.505 177.219 118.839 177.219ZM122.563 178V172.545H123.583V173.433H123.65C123.764 173.133 123.95 172.898 124.208 172.73C124.466 172.56 124.775 172.474 125.134 172.474C125.499 172.474 125.804 172.56 126.051 172.73C126.299 172.901 126.483 173.135 126.601 173.433H126.658C126.788 173.142 126.995 172.91 127.279 172.737C127.563 172.562 127.902 172.474 128.295 172.474C128.79 172.474 129.193 172.629 129.506 172.94C129.821 173.25 129.978 173.717 129.978 174.342V178H128.916V174.442C128.916 174.072 128.816 173.805 128.615 173.639C128.413 173.473 128.173 173.391 127.894 173.391C127.548 173.391 127.279 173.497 127.088 173.71C126.896 173.921 126.8 174.192 126.8 174.523V178H125.742V174.374C125.742 174.078 125.649 173.84 125.465 173.661C125.28 173.481 125.04 173.391 124.744 173.391C124.543 173.391 124.357 173.444 124.186 173.55C124.018 173.655 123.882 173.8 123.778 173.987C123.676 174.174 123.625 174.391 123.625 174.637V178H122.563ZM133.752 178.11C133.215 178.11 132.752 177.995 132.364 177.766C131.978 177.534 131.679 177.208 131.469 176.789C131.26 176.368 131.156 175.874 131.156 175.308C131.156 174.75 131.26 174.257 131.469 173.831C131.679 173.405 131.973 173.072 132.349 172.833C132.728 172.594 133.171 172.474 133.678 172.474C133.985 172.474 134.284 172.525 134.572 172.627C134.861 172.729 135.121 172.889 135.35 173.107C135.58 173.324 135.761 173.607 135.893 173.955C136.026 174.301 136.092 174.721 136.092 175.216V175.592H131.756V174.797H135.052C135.052 174.518 134.995 174.27 134.881 174.055C134.768 173.837 134.608 173.665 134.402 173.54C134.198 173.414 133.959 173.352 133.685 173.352C133.386 173.352 133.126 173.425 132.903 173.572C132.683 173.716 132.513 173.906 132.392 174.14C132.274 174.372 132.214 174.624 132.214 174.896V175.518C132.214 175.882 132.278 176.192 132.406 176.448C132.536 176.704 132.718 176.899 132.95 177.034C133.182 177.167 133.453 177.233 133.763 177.233C133.964 177.233 134.147 177.205 134.313 177.148C134.479 177.089 134.622 177.001 134.743 176.885C134.864 176.769 134.956 176.626 135.02 176.455L136.025 176.636C135.944 176.932 135.8 177.192 135.592 177.414C135.386 177.634 135.126 177.806 134.814 177.929C134.504 178.05 134.15 178.11 133.752 178.11ZM137.27 178V172.545H138.297V173.412H138.354C138.453 173.118 138.628 172.888 138.879 172.719C139.132 172.549 139.419 172.464 139.738 172.464C139.805 172.464 139.883 172.466 139.973 172.471C140.065 172.476 140.137 172.482 140.189 172.489V173.504C140.147 173.492 140.071 173.479 139.962 173.465C139.853 173.449 139.744 173.44 139.635 173.44C139.385 173.44 139.161 173.494 138.964 173.6C138.77 173.704 138.616 173.85 138.503 174.037C138.389 174.222 138.332 174.432 138.332 174.669V178H137.27ZM147.807 172.638C147.769 172.302 147.613 172.041 147.338 171.857C147.063 171.67 146.718 171.576 146.301 171.576C146.003 171.576 145.745 171.623 145.527 171.718C145.309 171.81 145.14 171.938 145.019 172.102C144.901 172.263 144.841 172.446 144.841 172.652C144.841 172.825 144.882 172.974 144.962 173.099C145.045 173.225 145.153 173.33 145.285 173.415C145.42 173.498 145.565 173.568 145.719 173.625C145.872 173.679 146.02 173.724 146.162 173.76L146.873 173.945C147.105 174.001 147.343 174.078 147.586 174.175C147.83 174.272 148.056 174.4 148.265 174.559C148.473 174.718 148.641 174.914 148.769 175.148C148.899 175.383 148.964 175.663 148.964 175.99C148.964 176.402 148.858 176.768 148.645 177.087C148.434 177.407 148.127 177.659 147.725 177.844C147.325 178.028 146.841 178.121 146.273 178.121C145.728 178.121 145.257 178.034 144.859 177.862C144.461 177.689 144.15 177.444 143.925 177.126C143.7 176.807 143.576 176.428 143.552 175.99H144.653C144.675 176.253 144.76 176.472 144.909 176.647C145.06 176.82 145.253 176.949 145.488 177.034C145.724 177.117 145.984 177.158 146.265 177.158C146.576 177.158 146.851 177.11 147.093 177.013C147.337 176.913 147.528 176.776 147.668 176.601C147.808 176.423 147.878 176.216 147.878 175.979C147.878 175.764 147.816 175.588 147.693 175.45C147.572 175.313 147.408 175.199 147.199 175.109C146.993 175.019 146.76 174.94 146.5 174.871L145.64 174.637C145.058 174.478 144.596 174.245 144.256 173.938C143.917 173.63 143.748 173.223 143.748 172.716C143.748 172.297 143.861 171.931 144.089 171.619C144.316 171.306 144.624 171.063 145.012 170.891C145.4 170.715 145.838 170.628 146.326 170.628C146.818 170.628 147.253 170.714 147.629 170.887C148.008 171.06 148.306 171.298 148.524 171.601C148.742 171.902 148.855 172.247 148.865 172.638H147.807ZM153.646 175.738V172.545H154.711V178H153.667V177.055H153.61C153.485 177.347 153.283 177.589 153.006 177.783C152.732 177.975 152.39 178.071 151.98 178.071C151.63 178.071 151.32 177.994 151.05 177.84C150.782 177.684 150.571 177.453 150.418 177.148C150.266 176.842 150.19 176.465 150.19 176.015V172.545H151.252V175.887C151.252 176.259 151.355 176.555 151.561 176.775C151.767 176.995 152.035 177.105 152.364 177.105C152.563 177.105 152.76 177.055 152.957 176.956C153.156 176.857 153.32 176.706 153.45 176.505C153.583 176.304 153.648 176.048 153.646 175.738ZM156.138 180.045V172.545H157.175V173.43H157.263C157.325 173.316 157.414 173.185 157.53 173.036C157.646 172.886 157.807 172.756 158.013 172.645C158.219 172.531 158.491 172.474 158.829 172.474C159.27 172.474 159.663 172.586 160.008 172.808C160.354 173.031 160.625 173.352 160.822 173.771C161.02 174.19 161.12 174.694 161.12 175.283C161.12 175.873 161.022 176.378 160.825 176.8C160.629 177.219 160.359 177.542 160.015 177.769C159.672 177.994 159.28 178.107 158.84 178.107C158.509 178.107 158.238 178.051 158.027 177.94C157.818 177.828 157.655 177.698 157.537 177.549C157.418 177.4 157.327 177.267 157.263 177.151H157.199V180.045H156.138ZM157.178 175.273C157.178 175.656 157.234 175.992 157.345 176.281C157.456 176.57 157.617 176.796 157.828 176.96C158.039 177.121 158.297 177.201 158.602 177.201C158.919 177.201 159.184 177.117 159.398 176.949C159.611 176.778 159.772 176.548 159.881 176.256C159.992 175.965 160.047 175.637 160.047 175.273C160.047 174.913 159.993 174.59 159.884 174.303C159.778 174.017 159.617 173.791 159.401 173.625C159.188 173.459 158.922 173.376 158.602 173.376C158.294 173.376 158.034 173.456 157.821 173.614C157.61 173.773 157.45 173.994 157.341 174.278C157.233 174.562 157.178 174.894 157.178 175.273ZM162.309 180.045V172.545H163.346V173.43H163.435C163.497 173.316 163.586 173.185 163.702 173.036C163.818 172.886 163.979 172.756 164.184 172.645C164.39 172.531 164.663 172.474 165.001 172.474C165.442 172.474 165.835 172.586 166.18 172.808C166.526 173.031 166.797 173.352 166.993 173.771C167.192 174.19 167.292 174.694 167.292 175.283C167.292 175.873 167.193 176.378 166.997 176.8C166.8 177.219 166.531 177.542 166.187 177.769C165.844 177.994 165.452 178.107 165.012 178.107C164.68 178.107 164.409 178.051 164.199 177.94C163.99 177.828 163.827 177.698 163.709 177.549C163.59 177.4 163.499 177.267 163.435 177.151H163.371V180.045H162.309ZM163.35 175.273C163.35 175.656 163.406 175.992 163.517 176.281C163.628 176.57 163.789 176.796 164 176.96C164.211 177.121 164.469 177.201 164.774 177.201C165.091 177.201 165.356 177.117 165.569 176.949C165.782 176.778 165.943 176.548 166.052 176.256C166.164 175.965 166.219 175.637 166.219 175.273C166.219 174.913 166.165 174.59 166.056 174.303C165.949 174.017 165.788 173.791 165.573 173.625C165.36 173.459 165.094 173.376 164.774 173.376C164.466 173.376 164.206 173.456 163.993 173.614C163.782 173.773 163.622 173.994 163.513 174.278C163.404 174.562 163.35 174.894 163.35 175.273ZM170.779 178.11C170.268 178.11 169.821 177.993 169.44 177.759C169.059 177.524 168.763 177.196 168.552 176.775C168.342 176.353 168.236 175.861 168.236 175.298C168.236 174.732 168.342 174.237 168.552 173.813C168.763 173.389 169.059 173.06 169.44 172.826C169.821 172.592 170.268 172.474 170.779 172.474C171.29 172.474 171.737 172.592 172.118 172.826C172.499 173.06 172.795 173.389 173.006 173.813C173.216 174.237 173.322 174.732 173.322 175.298C173.322 175.861 173.216 176.353 173.006 176.775C172.795 177.196 172.499 177.524 172.118 177.759C171.737 177.993 171.29 178.11 170.779 178.11ZM170.782 177.219C171.114 177.219 171.389 177.131 171.606 176.956C171.824 176.781 171.985 176.548 172.089 176.256C172.196 175.965 172.249 175.644 172.249 175.294C172.249 174.946 172.196 174.626 172.089 174.335C171.985 174.042 171.824 173.806 171.606 173.629C171.389 173.451 171.114 173.362 170.782 173.362C170.449 173.362 170.172 173.451 169.952 173.629C169.734 173.806 169.572 174.042 169.465 174.335C169.361 174.626 169.309 174.946 169.309 175.294C169.309 175.644 169.361 175.965 169.465 176.256C169.572 176.548 169.734 176.781 169.952 176.956C170.172 177.131 170.449 177.219 170.782 177.219ZM174.507 178V172.545H175.533V173.412H175.59C175.689 173.118 175.864 172.888 176.115 172.719C176.369 172.549 176.655 172.464 176.975 172.464C177.041 172.464 177.119 172.466 177.209 172.471C177.301 172.476 177.374 172.482 177.426 172.489V173.504C177.383 173.492 177.307 173.479 177.199 173.465C177.09 173.449 176.981 173.44 176.872 173.44C176.621 173.44 176.397 173.494 176.201 173.6C176.007 173.704 175.853 173.85 175.739 174.037C175.625 174.222 175.569 174.432 175.569 174.669V178H174.507ZM181.213 172.545V173.398H178.234V172.545H181.213ZM179.033 171.239H180.094V176.398C180.094 176.604 180.125 176.759 180.187 176.864C180.248 176.965 180.328 177.035 180.425 177.073C180.524 177.109 180.632 177.126 180.748 177.126C180.833 177.126 180.908 177.121 180.972 177.109C181.036 177.097 181.085 177.087 181.121 177.08L181.312 177.957C181.251 177.981 181.163 178.005 181.05 178.028C180.936 178.054 180.794 178.069 180.624 178.071C180.344 178.076 180.084 178.026 179.842 177.922C179.601 177.818 179.406 177.657 179.256 177.439C179.107 177.221 179.033 176.948 179.033 176.619V171.239Z" fill="#737373"/>
<g clip-path="url(#clip0_301_9799)">
<path d="M195.243 178C195.064 178 194.889 177.929 194.759 177.798C194.588 177.625 194.522 177.374 194.587 177.139L196.667 169.543C195.372 167.201 194.689 164.551 194.69 161.862C194.694 153.115 201.811 146 210.557 146C214.799 146.002 218.785 147.654 221.781 150.652C224.776 153.65 226.425 157.636 226.424 161.875C226.42 170.621 219.302 177.737 210.557 177.737C210.557 177.737 210.55 177.737 210.55 177.737C207.996 177.736 205.463 177.114 203.208 175.934L195.416 177.978C195.359 177.993 195.301 178 195.243 178Z" fill="#E5E5E5"/>
<path d="M195.243 177.319L197.397 169.452C196.069 167.149 195.37 164.538 195.371 161.862C195.374 153.491 202.186 146.681 210.557 146.681C214.619 146.682 218.431 148.263 221.299 151.133C224.166 154.003 225.744 157.817 225.742 161.874C225.739 170.245 218.926 177.056 210.557 177.056C210.556 177.056 210.557 177.056 210.557 177.056H210.55C208.009 177.055 205.511 176.417 203.293 175.208L195.243 177.319ZM203.666 172.459L204.127 172.733C206.065 173.882 208.286 174.491 210.552 174.492H210.557C217.513 174.492 223.175 168.831 223.178 161.873C223.179 158.501 221.868 155.331 219.485 152.946C217.102 150.561 213.933 149.246 210.561 149.245C203.599 149.245 197.937 154.905 197.935 161.863C197.934 164.247 198.601 166.569 199.864 168.578L200.165 169.056L198.889 173.712L203.666 172.459Z" fill="white"/>
<path d="M195.771 176.79L197.851 169.195C196.568 166.972 195.894 164.45 195.894 161.867C195.897 153.786 202.474 147.212 210.554 147.212C214.476 147.214 218.157 148.74 220.924 151.51C223.692 154.281 225.216 157.963 225.214 161.879C225.211 169.96 218.634 176.535 210.555 176.535C210.554 176.535 210.555 176.535 210.555 176.535H210.548C208.095 176.534 205.684 175.919 203.543 174.752L195.771 176.79Z" fill="#64B161"/>
<path d="M195.243 177.319L197.397 169.452C196.069 167.149 195.37 164.538 195.371 161.862C195.374 153.491 202.186 146.681 210.557 146.681C214.619 146.682 218.431 148.263 221.299 151.133C224.166 154.003 225.744 157.817 225.742 161.874C225.739 170.245 218.926 177.056 210.557 177.056C210.556 177.056 210.557 177.056 210.557 177.056H210.55C208.009 177.055 205.511 176.417 203.293 175.208L195.243 177.319ZM203.666 172.459L204.127 172.733C206.065 173.882 208.286 174.491 210.552 174.492H210.557C217.513 174.492 223.175 168.831 223.178 161.873C223.179 158.501 221.868 155.331 219.485 152.946C217.102 150.561 213.933 149.246 210.561 149.245C203.599 149.245 197.937 154.905 197.935 161.863C197.934 164.247 198.601 166.569 199.864 168.578L200.165 169.056L198.889 173.712L203.666 172.459Z" fill="white"/>
<path fill-rule="evenodd" clip-rule="evenodd" d="M206.761 155.515C206.477 154.883 206.177 154.871 205.907 154.86C205.686 154.85 205.433 154.851 205.18 154.851C204.927 154.851 204.516 154.946 204.168 155.325C203.82 155.705 202.84 156.623 202.84 158.49C202.84 160.357 204.2 162.161 204.389 162.415C204.579 162.668 207.014 166.621 210.871 168.142C214.076 169.407 214.728 169.155 215.424 169.092C216.12 169.029 217.669 168.174 217.985 167.288C218.302 166.402 218.302 165.643 218.207 165.484C218.112 165.326 217.859 165.231 217.479 165.041C217.1 164.851 215.235 163.933 214.887 163.807C214.539 163.68 214.286 163.617 214.033 163.997C213.78 164.376 213.053 165.231 212.832 165.484C212.61 165.737 212.389 165.769 212.01 165.579C211.63 165.389 210.408 164.989 208.958 163.696C207.83 162.69 207.069 161.448 206.847 161.068C206.626 160.689 206.843 160.501 207.014 160.294C207.321 159.921 207.836 159.25 207.962 158.997C208.089 158.743 208.025 158.522 207.931 158.332C207.836 158.142 207.098 156.266 206.761 155.515Z" fill="white"/>
</g>
</g>
<defs>
<filter id="filter0_ddd_301_9799" x="-54.5" y="0" width="429" height="328" filterUnits="userSpaceOnUse" color-interpolation-filters="sRGB">
<feFlood flood-opacity="0" result="BackgroundImageFix"/>
<feColorMatrix in="SourceAlpha" type="matrix" values="0 0 0 0 0 0 0 0 0 0 0 0 0 0 0 0 0 0 127 0" result="hardAlpha"/>
<feOffset dy="5.45308"/>
<feGaussianBlur stdDeviation="4.52207"/>
<feColorMatrix type="matrix" values="0 0 0 0 0.164706 0 0 0 0 0.164706 0 0 0 0 0.164706 0 0 0 0.0484671 0"/>
<feBlend mode="normal" in2="BackgroundImageFix" result="effect1_dropShadow_301_9799"/>
<feColorMatrix in="SourceAlpha" type="matrix" values="0 0 0 0 0 0 0 0 0 0 0 0 0 0 0 0 0 0 127 0" result="hardAlpha"/>
<feOffset dy="8.32"/>
<feGaussianBlur stdDeviation="15.1887"/>
<feColorMatrix type="matrix" values="0 0 0 0 0.164706 0 0 0 0 0.164706 0 0 0 0 0.164706 0 0 0 0.0715329 0"/>
<feBlend mode="normal" in2="effect1_dropShadow_301_9799" result="effect2_dropShadow_301_9799"/>
<feColorMatrix in="SourceAlpha" type="matrix" values="0 0 0 0 0 0 0 0 0 0 0 0 0 0 0 0 0 0 127 0" result="hardAlpha"/>
<feOffset dy="2"/>
<feGaussianBlur stdDeviation="68"/>
<feColorMatrix type="matrix" values="0 0 0 0 0.164706 0 0 0 0 0.164706 0 0 0 0 0.164706 0 0 0 0.12 0"/>
<feBlend mode="normal" in2="effect2_dropShadow_301_9799" result="effect3_dropShadow_301_9799"/>
<feBlend mode="normal" in="SourceGraphic" in2="effect3_dropShadow_301_9799" result="shape"/>
</filter>
<clipPath id="clip0_301_9799">
<rect width="32" height="32" fill="white" transform="translate(194.5 146)"/>
</clipPath>
</defs>
</svg>
